<?xml version="1.0" encoding="UTF-8" standalone="no"?>
<svg
   xmlns:dc="http://purl.org/dc/elements/1.1/"
   xmlns:cc="http://creativecommons.org/ns#"
   xmlns:rdf="http://www.w3.org/1999/02/22-rdf-syntax-ns#"
   xmlns:svg="http://www.w3.org/2000/svg"
   xmlns="http://www.w3.org/2000/svg"
   xmlns:xlink="http://www.w3.org/1999/xlink"
   style="enable-background:new"
   width="97.083328mm"
   height="97.083328mm"
   viewBox="0 0 97.083328 97.083322"
   version="1.1"
   id="svg8">
  <defs
     id="defs2">
    <linearGradient
       id="linearGradient1901">
      <stop
         style="stop-color:#ec3000;stop-opacity:1"
         offset="0"
         id="stop1895" />
      <stop
         id="stop1897"
         offset="0.51621437"
         style="stop-color:#ffc900;stop-opacity:1" />
      <stop
         style="stop-color:#ec3000;stop-opacity:1"
         offset="1"
         id="stop1899" />
    </linearGradient>
    <linearGradient
       id="linearGradient1518">
      <stop
         id="stop1512"
         offset="0"
         style="stop-color:#ec3000;stop-opacity:1" />
      <stop
         style="stop-color:#fff000;stop-opacity:1"
         offset="0.51621437"
         id="stop1514" />
      <stop
         id="stop1516"
         offset="1"
         style="stop-color:#ec3000;stop-opacity:1" />
    </linearGradient>
    <linearGradient
       id="linearGradient1172">
      <stop
         id="stop1166"
         offset="0"
         style="stop-color:#ec3000;stop-opacity:1" />
      <stop
         style="stop-color:#ffa900;stop-opacity:1"
         offset="0.51621437"
         id="stop1168" />
      <stop
         id="stop1170"
         offset="1"
         style="stop-color:#ec3000;stop-opacity:1" />
    </linearGradient>
    <linearGradient
       id="linearGradient5749">
      <stop
         id="stop5743"
         offset="0"
         style="stop-color:#ff7400;stop-opacity:0" />
      <stop
         style="stop-color:#4a2100;stop-opacity:0.318"
         offset="0.73862964"
         id="stop5745" />
      <stop
         id="stop5747"
         offset="1"
         style="stop-color:#000000;stop-opacity:0" />
    </linearGradient>
    <linearGradient
       id="linearGradient5729">
      <stop
         style="stop-color:#4a2100;stop-opacity:0"
         offset="0"
         id="stop5725" />
      <stop
         id="stop5727"
         offset="1"
         style="stop-color:#000000;stop-opacity:0" />
    </linearGradient>
    <linearGradient
       id="linearGradient5709">
      <stop
         style="stop-color:#ff7400;stop-opacity:0"
         offset="0"
         id="stop5703" />
      <stop
         id="stop5711"
         offset="0.64335394"
         style="stop-color:#4a2100;stop-opacity:0.318" />
      <stop
         style="stop-color:#000000;stop-opacity:0"
         offset="1"
         id="stop5707" />
    </linearGradient>
    <linearGradient
       id="linearGradient5675">
      <stop
         id="stop5671"
         offset="0"
         style="stop-color:#ff7400;stop-opacity:0" />
      <stop
         style="stop-color:#341700;stop-opacity:0"
         offset="0.93055564"
         id="stop5683" />
      <stop
         id="stop5673"
         offset="1"
         style="stop-color:#000000;stop-opacity:1" />
    </linearGradient>
    <linearGradient
       id="linearGradient5360">
      <stop
         style="stop-color:#ec3000;stop-opacity:1"
         offset="0"
         id="stop5354" />
      <stop
         id="stop5356"
         offset="0.51621437"
         style="stop-color:#ffeb00;stop-opacity:1" />
      <stop
         style="stop-color:#ec3000;stop-opacity:1"
         offset="1"
         id="stop5358" />
    </linearGradient>
    <linearGradient
       id="linearGradient5352">
      <stop
         style="stop-color:#fff48f;stop-opacity:1"
         offset="0"
         id="stop5348" />
      <stop
         style="stop-color:#ffff0b;stop-opacity:1"
         offset="1"
         id="stop5350" />
    </linearGradient>
    <linearGradient
       id="linearGradient4627">
      <stop
         id="stop4623"
         offset="0"
         style="stop-color:#ffff00;stop-opacity:1" />
      <stop
         id="stop4625"
         offset="1"
         style="stop-color:#ffffff;stop-opacity:0.98039216" />
    </linearGradient>
    <linearGradient
       gradientUnits="userSpaceOnUse"
       y2="139.70572"
       x2="42.395966"
       y1="109.5332"
       x1="42.201172"
       id="linearGradient4629"
       xlink:href="#linearGradient4627" />
    <linearGradient
       gradientTransform="translate(0,-278.93795)"
       gradientUnits="userSpaceOnUse"
       y2="95.690231"
       x2="279.32983"
       y1="181.37685"
       x1="279.98364"
       id="linearGradient5332"
       xlink:href="#linearGradient5352" />
    <linearGradient
       gradientTransform="rotate(-30,277.41211,139.46875)"
       gradientUnits="userSpaceOnUse"
       y2="139.46875"
       x2="372.79611"
       y1="139.46875"
       x1="177.53796"
       id="linearGradient5346"
       xlink:href="#linearGradient5360" />
    <linearGradient
       gradientUnits="userSpaceOnUse"
       y2="142.41849"
       x2="320.92816"
       y1="142.41849"
       x1="236.13582"
       id="linearGradient5532"
       xlink:href="#linearGradient5360" />
    <radialGradient
       gradientTransform="matrix(1,0,0,0.98331502,0,2.1329561)"
       gradientUnits="userSpaceOnUse"
       r="67.277992"
       fy="127.83689"
       fx="465.65567"
       cy="127.83689"
       cx="465.65567"
       id="radialGradient5677"
       xlink:href="#linearGradient5675" />
    <radialGradient
       gradientUnits="userSpaceOnUse"
       gradientTransform="matrix(1.6209098,-0.00492773,0.00220181,0.72425888,-283.46934,38.459948)"
       r="37.965565"
       fy="131.32806"
       fx="456.07297"
       cy="131.32806"
       cx="456.07297"
       id="radialGradient5701"
       xlink:href="#linearGradient5709" />
    <radialGradient
       r="37.965565"
       fy="131.32806"
       fx="456.07297"
       cy="131.32806"
       cx="456.07297"
       gradientTransform="matrix(-0.66753939,-0.07394132,0.07973668,-0.71985952,753.41555,286.52923)"
       gradientUnits="userSpaceOnUse"
       id="radialGradient5721"
       xlink:href="#linearGradient5729" />
    <radialGradient
       r="37.965565"
       fy="131.32806"
       fx="456.07297"
       cy="131.32806"
       cx="456.07297"
       gradientTransform="matrix(1.6209098,-0.00492773,0.00220181,0.72425888,-283.46934,38.459948)"
       gradientUnits="userSpaceOnUse"
       id="radialGradient5741"
       xlink:href="#linearGradient5749" />
    <linearGradient
       xlink:href="#linearGradient5360"
       id="linearGradient5392"
       gradientUnits="userSpaceOnUse"
       gradientTransform="translate(-1.945265e-6,-3.1048624e-6)"
       x1="177.53796"
       y1="139.46875"
       x2="372.79611"
       y2="139.46875" />
    <radialGradient
       xlink:href="#linearGradient5675"
       id="radialGradient5677-3"
       cx="465.65567"
       cy="127.83689"
       fx="465.65567"
       fy="127.83689"
       r="67.277992"
       gradientUnits="userSpaceOnUse"
       gradientTransform="matrix(1,0,0,0.98331502,0,2.1329561)" />
    <radialGradient
       xlink:href="#linearGradient5709"
       id="radialGradient5701-1"
       cx="456.07297"
       cy="131.32806"
       fx="456.07297"
       fy="131.32806"
       r="37.965565"
       gradientTransform="matrix(1.6209098,-0.00492773,0.00220181,0.72425888,-283.46934,38.459948)"
       gradientUnits="userSpaceOnUse" />
    <radialGradient
       xlink:href="#linearGradient5729"
       id="radialGradient5721-9"
       gradientUnits="userSpaceOnUse"
       gradientTransform="matrix(-0.66753939,-0.07394132,0.07973668,-0.71985952,753.41555,286.52923)"
       cx="456.07297"
       cy="131.32806"
       fx="456.07297"
       fy="131.32806"
       r="37.965565" />
    <radialGradient
       xlink:href="#linearGradient5749"
       id="radialGradient5741-4"
       gradientUnits="userSpaceOnUse"
       gradientTransform="matrix(1.6209098,-0.00492773,0.00220181,0.72425888,-283.46934,38.459948)"
       cx="456.07297"
       cy="131.32806"
       fx="456.07297"
       fy="131.32806"
       r="37.965565" />
    <linearGradient
       gradientUnits="userSpaceOnUse"
       y2="300.2406"
       x2="719.34174"
       y1="300.2406"
       x1="651.20099"
       id="linearGradient967"
       xlink:href="#linearGradient5360" />
    <linearGradient
       gradientTransform="matrix(3.7795276,0,0,3.7795276,-2408.5372,-1062.1563)"
       y2="300.2406"
       x2="719.34174"
       y1="300.2406"
       x1="651.20099"
       gradientUnits="userSpaceOnUse"
       id="linearGradient1163"
       xlink:href="#linearGradient1172" />
    <linearGradient
       gradientUnits="userSpaceOnUse"
       y2="326.67773"
       x2="235.09824"
       y1="326.67773"
       x1="124.99805"
       id="linearGradient1185"
       xlink:href="#linearGradient1172" />
    <linearGradient
       gradientUnits="userSpaceOnUse"
       y2="328.90906"
       x2="733.90912"
       y1="328.90906"
       x1="637.69177"
       id="linearGradient1502"
       xlink:href="#linearGradient1518" />
    <clipPath
       clipPathUnits="userSpaceOnUse"
       id="clipPath900">
      <path
         d="M 0,94.293 H 91.509 V 0 H 0 Z"
         id="path898" />
    </clipPath>
    <linearGradient
       gradientUnits="userSpaceOnUse"
       y2="188.62572"
       x2="748.29688"
       y1="188.62572"
       x1="619.89648"
       id="linearGradient1893"
       xlink:href="#linearGradient1901" />
  </defs>
  <metadata
     id="metadata5">
    <rdf:RDF>
      <cc:Work
         rdf:about="">
        <dc:format>image/svg+xml</dc:format>
        <dc:type
           rdf:resource="http://purl.org/dc/dcmitype/StillImage" />
        <dc:title></dc:title>
      </cc:Work>
    </rdf:RDF>
  </metadata>
  <g
     transform="translate(118.80757,-192.43623)"
     id="layer1">
    <g
       transform="translate(-756.06637,-87.931179)"
       id="g1555"
       style="display:inline">
      <g
         transform="matrix(0.76602633,0,0,0.76602633,473.29549,222.07234)"
         id="g5585">
        <path
           xlink:href="#path5290"
           style="opacity:1;vector-effect:none;fill:#ffc222;fill-opacity:1;stroke:#ffff0b;stroke-width:0.33784547;stroke-linecap:round;stroke-linejoin:miter;stroke-miterlimit:4;stroke-dasharray:none;stroke-dashoffset:0;stroke-opacity:0.05882353;paint-order:markers fill stroke"
           id="path5296"
           d="m 277.41211,76.269531 c -16.62585,-5.3e-5 -32.93289,6.75319 -44.68945,18.509766 -11.75658,11.756573 -18.50983,28.063603 -18.50977,44.689453 -6e-5,16.62586 6.75319,32.93289 18.50977,44.68945 11.75656,11.75657 28.0636,18.50982 44.68945,18.50977 16.62585,5e-5 32.93288,-6.7532 44.68945,-18.50977 11.75657,-11.75656 18.50982,-28.06358 18.50977,-44.68945 5e-5,-16.62585 -6.75319,-32.93288 -18.50977,-44.689453 C 310.345,83.022719 294.03796,76.269477 277.41211,76.269531 Z" />
        <path
           style="opacity:1;vector-effect:none;fill:url(#linearGradient5392);fill-opacity:1;stroke:none;stroke-width:0.33784547;stroke-linecap:round;stroke-linejoin:miter;stroke-miterlimit:4;stroke-dasharray:none;stroke-dashoffset:0;stroke-opacity:1;paint-order:markers fill stroke"
           d="m 277.41211,82.624999 c -14.88188,-4.8e-5 -29.67225,6.125361 -40.19531,16.648435 -10.52308,10.523076 -16.64849,25.313436 -16.64844,40.195306 -5e-5,14.88189 6.12536,29.67225 16.64844,40.19532 10.52307,10.52307 25.31344,16.64849 40.19531,16.64844 14.88187,5e-5 29.67224,-6.12537 40.19532,-16.64844 10.52307,-10.52307 16.64848,-25.31343 16.64843,-40.19532 5e-5,-14.88187 -6.12536,-29.67223 -16.64844,-40.195302 C 307.08435,88.750359 292.29399,82.62495 277.41211,82.624999 Z"
           id="path5290" />
        <circle
           style="opacity:1;vector-effect:none;fill:url(#linearGradient5332);fill-opacity:1;stroke:none;stroke-width:0.33784547;stroke-linecap:round;stroke-linejoin:miter;stroke-miterlimit:4;stroke-dasharray:none;stroke-dashoffset:0;stroke-opacity:1;paint-order:markers fill stroke"
           id="path5286"
           cx="277.41168"
           cy="-139.46898"
           r="43.826027"
           transform="scale(1,-1)" />
        <path
           id="path5370"
           d="m 257.97442,125.98314 c -5.77803,0 -10.46151,4.68347 -10.46151,10.46147 0.33807,8.2815 14.71639,15.2575 20.92299,22.40921 10e-4,-26.14423 10e-4,-26.01084 0.002,0 4.6082,-5.30991 13.71687,-10.52312 18.24342,-16.24552 l -1.13945,-4.2519 -3.04787,5.27692 h -5.22423 c -0.33653,1.04668 -1.34715,1.84833 -2.47668,1.84774 -1.38536,-8.9e-4 -2.59253,-1.20807 -2.59341,-2.59341 -7.6e-4,-1.38652 1.20703,-2.59425 2.59341,-2.59512 1.14522,-5.8e-4 2.16651,0.82305 2.48858,1.89081 h 4.37489 l 4.37996,-7.58759 1.73497,6.47814 c 0.9404,-1.50215 1.52455,-3.04156 1.58938,-4.62928 -4e-5,-5.778 -4.68346,-10.46147 -10.4615,-10.46147 -3.24574,0 -5.36938,0.0177 -10.46206,5.11089 -5.37265,-5.14539 -7.21611,-5.11089 -10.46199,-5.11089 z m 29.79675,15.09075 c -0.32269,0.51568 -0.68891,1.02717 -1.09015,1.53441 l 2.78778,10.40481 5.32848,-19.8866 6.38805,23.84613 3.57422,-13.33932 h 1.83811 c 0.33644,1.04576 1.34654,1.84691 2.47501,1.84774 1.3865,8.6e-4 2.5941,-1.20707 2.5951,-2.59341 8.6e-4,-1.3875 -1.20762,-2.59588 -2.5951,-2.59512 -1.14412,8.7e-4 -2.1649,0.824 -2.48693,1.89081 h -2.93791 l -2.4625,9.18715 -6.38805,-23.84615 -5.32848,19.88662 z M 274.79278,140.969 c -0.97619,5.9e-4 -1.91744,0.94256 -1.91689,1.91859 7.3e-4,0.97524 0.94164,1.91628 1.91689,1.91686 0.976,5.7e-4 1.918,-0.9407 1.91859,-1.91686 5.3e-4,-0.97695 -0.94166,-1.91916 -1.91859,-1.91859 z m 34.27989,0 c 0.97691,-5.7e-4 1.91908,0.94164 1.91855,1.91859 -5.8e-4,0.97616 -0.94256,1.91739 -1.91855,1.91686 -0.97528,-5.8e-4 -1.9162,-0.94162 -1.91688,-1.91686 -5.9e-4,-0.97603 0.94064,-1.91787 1.91688,-1.91859 z m -34.27989,0.60459 c 0.72589,-2.9e-4 1.3144,0.58813 1.31399,1.314 -5.3e-4,0.72518 -0.58879,1.31268 -1.31399,1.31227 -0.72454,-5.9e-4 -1.31174,-0.58773 -1.31227,-1.31227 -4.4e-4,-0.7252 0.58708,-1.31347 1.31227,-1.314 z m 34.2793,0 c -0.7252,5.7e-4 -1.31268,0.5888 -1.31229,1.314 5.9e-4,0.72454 0.58776,1.31174 1.31229,1.31227 0.72523,2.9e-4 1.31345,-0.58709 1.31398,-1.31227 3e-4,-0.72587 -0.58811,-1.31441 -1.31398,-1.314 z"
           style="opacity:1;vector-effect:none;fill:url(#linearGradient5532);fill-opacity:1;stroke:none;stroke-width:2.34312081;stroke-linecap:round;stroke-linejoin:miter;stroke-miterlimit:4;stroke-dasharray:none;stroke-dashoffset:0;stroke-opacity:1;paint-order:normal" />
        <path
           style="opacity:1;vector-effect:none;fill:#8e2400;fill-opacity:1;stroke:#110700;stroke-width:1.27689624;stroke-linecap:round;stroke-linejoin:miter;stroke-miterlimit:4;stroke-dasharray:none;stroke-dashoffset:0;stroke-opacity:0.05882353;paint-order:markers fill stroke"
           d="m 1026.1523,238.52539 a 165.64168,165.64168 0 0 0 -0.1445,4.09961 165.64168,165.64168 0 0 0 165.6406,165.64062 165.64168,165.64168 0 0 0 165.6426,-165.64062 165.64168,165.64168 0 0 0 -0.1445,-2.9043 165.64168,165.64168 0 0 1 -165.4981,161.54492 165.64168,165.64168 0 0 1 -165.4961,-162.74023 z"
           transform="matrix(0.26458333,0,0,0.26458333,-37.878803,77.126701)"
           id="circle5383" />
        <path
           style="opacity:1;vector-effect:none;fill:#8e2400;fill-opacity:1;stroke:none;stroke-width:1.27689624;stroke-linecap:round;stroke-linejoin:miter;stroke-miterlimit:4;stroke-dasharray:none;stroke-dashoffset:0;stroke-opacity:1;paint-order:markers fill stroke"
           d="m 1189.9121,20.955078 c -36.8932,0.405778 -73.7171,10.153396 -105.6836,28.609375 -48.711,28.123079 -85.54589,76.123247 -100.1035,130.453127 -5.09273,19.00628 -7.4277,38.70515 -7.11914,58.37109 0.28399,-17.33071 2.63059,-34.61962 7.11914,-51.37109 14.55761,-54.32988 51.3925,-102.330044 100.1035,-130.453127 48.7108,-28.123396 108.6994,-36.024464 163.0293,-21.466797 54.3299,14.557637 102.3281,51.39454 130.4512,100.105464 18.2846,31.66971 28.0121,68.10533 28.5859,104.6543 0.637,-38.87775 -9.1338,-77.9625 -28.5859,-111.6543 -28.1231,-48.710951 -76.1213,-85.547827 -130.4512,-100.105464 -18.6759,-5.004198 -38.0207,-7.355128 -57.3457,-7.142578 z"
           transform="matrix(0.26458333,0,0,0.26458333,-37.878803,77.126701)"
           id="path5387" />
        <path
           style="opacity:1;vector-effect:none;fill:#8e2400;fill-opacity:1;stroke:none;stroke-width:8.85588932;stroke-linecap:round;stroke-linejoin:miter;stroke-miterlimit:4;stroke-dasharray:none;stroke-dashoffset:0;stroke-opacity:1;paint-order:normal"
           d="m 1118.1855,184.6543 c -21.8382,0 -39.539,17.70095 -39.539,39.53906 0,0.0965 0.015,0.19264 0.019,0.28906 0.4126,-21.48068 17.94,-38.76758 39.5195,-38.76758 v 0 c 12.2678,0 19.2349,-0.13073 39.541,19.31641 19.2479,-19.24985 27.2736,-19.31641 39.541,-19.31641 21.5665,0 39.0863,17.26597 39.5195,38.72852 0,-0.0836 0.016,-0.16638 0.02,-0.25 -10e-5,-21.83811 -17.7008,-39.53906 -39.539,-39.53906 -12.2674,0 -20.2931,0.0666 -39.541,19.3164 -20.3061,-19.44714 -27.2732,-19.3164 -39.541,-19.3164 z m 139.1739,5.82422 -20.1406,75.1621 L 1231,242.42188 c -0.067,0.10925 -0.127,0.21897 -0.1953,0.32812 l -0.2012,-0.75195 c -1.1716,1.84449 -2.4835,3.67632 -3.9199,5.49218 l 0.209,0.78125 c 1.431,-1.82605 2.7494,-3.66654 3.9101,-5.52148 l 6.4161,23.95117 20.1406,-75.16211 24.1426,90.12891 9.3066,-34.72461 h 11.1055 c 1.2171,-4.03204 5.0742,-7.1432 9.3984,-7.14648 5.0654,-0.003 9.486,4.26083 9.7793,9.27734 0.011,-0.17616 0.029,-0.35144 0.029,-0.5293 0,-5.24409 -4.5646,-9.81146 -9.8086,-9.80859 -4.3242,0.003 -8.1813,3.11444 -9.3984,7.14648 h -11.1055 l -9.3066,34.72461 z m -30.6758,57.01171 -4.3066,-16.07031 -11.5196,19.94336 h -19.7441 c -1.2719,3.95596 -5.0923,6.98661 -9.3613,6.98438 -5.0606,-0.003 -9.4792,-4.26861 -9.7735,-9.28125 -0.011,0.17973 -0.029,0.35754 -0.029,0.53906 0,5.23593 4.5667,9.79937 9.8028,9.80273 4.269,0.002 8.0894,-3.02842 9.3613,-6.98437 h 19.7441 l 11.5196,-19.94336 4.0918,15.27148 c 0.07,-0.0876 0.1455,-0.17406 0.2148,-0.26172 z m -44.9336,-6.19726 c -3.6895,0.002 -7.2462,3.56302 -7.2441,7.25195 10e-5,0.17685 0.015,0.35342 0.031,0.5293 0.3168,-3.49192 3.701,-6.71858 7.2129,-6.7207 3.5145,-0.002 6.9035,3.22572 7.2207,6.7207 0.016,-0.17604 0.031,-0.35228 0.031,-0.5293 0,-3.69241 -3.5597,-7.25411 -7.252,-7.25195 z m 129.5605,2.28515 c -2.7409,0.002 -4.9604,2.22589 -4.9589,4.9668 10e-5,0.17657 0.01,0.35165 0.027,0.52344 0.2664,-2.48846 2.3722,-4.42768 4.9316,-4.42969 2.5619,-10e-4 4.6705,1.93905 4.9375,4.42969 0.018,-0.17193 0.029,-0.34672 0.029,-0.52344 0,-2.74344 -2.2233,-4.96834 -4.9668,-4.9668 z m -7.2109,5.48438 c -0.017,0.18055 -0.031,0.36139 -0.031,0.54297 0,3.68595 3.558,7.24195 7.2441,7.24414 3.6888,0.002 7.2498,-3.55472 7.252,-7.24414 0,-0.17782 -0.015,-0.35443 -0.031,-0.53125 -0.3196,3.49283 -3.7089,6.71675 -7.2207,6.71484 -3.5131,-0.002 -6.8998,-3.23231 -7.2129,-6.72656 z m -127.2793,0.0117 c -0.019,0.17457 -0.029,0.35177 -0.029,0.53125 0,2.73842 2.2206,4.95871 4.959,4.96094 2.7409,0.002 4.9648,-2.2201 4.9668,-4.96094 10e-5,-0.17965 -0.011,-0.35654 -0.029,-0.53125 -0.266,2.49179 -2.3754,4.43113 -4.9375,4.42969 -2.5598,-0.002 -4.6641,-1.94002 -4.9297,-4.42969 z"
           transform="matrix(0.26458333,0,0,0.26458333,-37.878803,77.126701)"
           id="path5534" />
        <path
           style="opacity:1;vector-effect:none;fill:#ffff00;fill-opacity:1;stroke:none;stroke-width:8.85588932;stroke-linecap:round;stroke-linejoin:miter;stroke-miterlimit:4;stroke-dasharray:none;stroke-dashoffset:0;stroke-opacity:1;paint-order:normal"
           d="m 1257.3594,211.65234 -20.1406,75.16211 -10.2559,-38.28125 c -0.096,0.12336 -0.1818,0.24787 -0.2793,0.3711 l 10.5352,39.32422 20.1406,-75.16211 24.1426,90.12695 13.5097,-50.41602 h 6.9473 c 1.2716,3.95248 5.0884,6.98124 9.3535,6.98438 5.2403,0.003 9.8048,-4.56303 9.8086,-9.80274 10e-5,-0.23778 -0.021,-0.47239 -0.039,-0.70703 -0.3908,4.9361 -4.7668,9.09881 -9.7695,9.09571 -4.2651,-0.003 -8.0819,-3.0319 -9.3535,-6.98438 h -6.9473 l -13.5097,50.41602 z m -30.6758,37.25196 -0.2852,-1.06446 c -17.2008,21.49058 -51.3432,41.09021 -68.666,61.05078 10e-5,0.92239 0,0.47379 0,1.41407 17.4168,-20.06895 51.843,-39.77242 68.9512,-61.40039 z m -2.4375,-31.69922 -16.5527,28.67773 h -16.5352 c -1.2173,-4.03563 -5.0779,-7.14867 -9.4062,-7.14648 -5.2399,0.003 -9.8057,4.5682 -9.8028,9.80859 2e-4,0.23328 0.021,0.4631 0.039,0.69336 0.3928,-4.93007 4.7665,-9.08475 9.7637,-9.08789 4.3283,-0.002 8.1889,3.11086 9.4062,7.14649 h 16.5352 l 16.5527,-28.67774 6.2891,23.48242 c 0.088,-0.13756 0.1814,-0.27439 0.2675,-0.41211 l 0.2618,0.97657 c 3.3956,-5.53904 5.5073,-11.21149 5.746,-17.0586 0,-0.36283 -0.018,-0.72154 -0.027,-1.08203 -0.3116,5.88312 -2.49,11.59175 -5.9785,17.16406 z m -145.5742,7.37304 c -0.01,0.34303 -0.025,0.68415 -0.025,1.0293 1.2777,31.30016 55.6201,57.66718 79.0781,84.69727 0,-0.94511 0,-0.48713 0,-1.41407 -23.3617,-26.91915 -77.3479,-53.18103 -79.0527,-84.3125 z m 232.6406,16.71485 c -3.6897,0.003 -7.2464,3.56302 -7.2441,7.25195 10e-5,0.23434 0.015,0.46876 0.043,0.70117 0.415,-3.42143 3.75,-6.53651 7.2012,-6.53906 3.4555,-0.002 6.7945,3.11826 7.207,6.54492 0.028,-0.23459 0.045,-0.47045 0.045,-0.70703 0,-3.69241 -3.5597,-7.25411 -7.252,-7.25195 z m -129.5625,2.28515 c -2.7409,0.002 -4.9606,2.22589 -4.959,4.9668 2e-4,0.23979 0.024,0.4744 0.057,0.70508 0.3433,-2.40437 2.4028,-4.25599 4.9023,-4.25781 2.5019,-0.001 4.5661,1.85146 4.9102,4.25781 0.033,-0.23088 0.056,-0.46508 0.057,-0.70508 0,-2.74344 -2.2233,-4.96789 -4.9668,-4.9668 z m 124.6562,5.66993 c -0.033,0.23275 -0.055,0.46894 -0.055,0.71093 0,2.73842 2.2206,4.95894 4.9589,4.96094 2.7411,0.001 4.9648,-2.2201 4.9668,-4.96094 10e-5,-0.24221 -0.023,-0.47798 -0.057,-0.71093 -0.3439,2.40674 -2.4084,4.25686 -4.9102,4.25586 -2.4993,-0.002 -4.5607,-1.85104 -4.9043,-4.25586 z m -131.8554,0.004 c -0.028,0.23459 -0.045,0.47048 -0.045,0.70703 0,3.68595 3.5581,7.24391 7.2441,7.2461 3.6888,0.002 7.2497,-3.55667 7.252,-7.2461 10e-5,-0.23677 -0.017,-0.47224 -0.045,-0.70703 -0.4159,3.42382 -3.7547,6.53913 -7.207,6.53711 -3.4496,-0.002 -6.7833,-3.11624 -7.1992,-6.53711 z"
           transform="matrix(0.26458333,0,0,0.26458333,-37.878803,77.126701)"
           id="path5543" />
      </g>
      <g
         transform="translate(0,-0.66145833)"
         id="text880"
         style="font-style:normal;font-variant:normal;font-weight:500;font-stretch:normal;font-size:7.65781116px;line-height:1.25;font-family:Montserrat;-inkscape-font-specification:'Montserrat Medium';letter-spacing:0.98160416px;word-spacing:0px;fill:url(#linearGradient967);fill-opacity:1;stroke:none;stroke-width:0.09734505"
         aria-label="WORTHY WALK">
        <path
           id="path931"
           transform="matrix(0.26458333,0,0,0.26458333,637.2588,281.02887)"
           d="m 180.82422,31.402344 7.44336,13.548828 -0.31836,7.054687 2.86133,0.128907 0.3164,-6.998047 8.63672,-12.878907 -2.86328,-0.128906 -6.98633,10.375 -5.99609,-10.960937 z m -10.57031,0.61914 -2.86133,0.425782 1.27734,8.617187 -11.50781,1.707031 -1.2793,-8.617187 -2.86328,0.425781 2.97461,20.041016 2.86328,-0.425782 -1.32617,-8.93164 11.50977,-1.708984 1.32617,8.93164 2.86133,-0.423828 z m 51.70898,3.94336 -0.78711,21.347656 2.89844,1.089844 10.86719,-13.201172 -0.51758,17.089844 2.8457,1.070312 13.4668,-16.582031 -2.57422,-0.96875 -11.05273,13.533203 0.5957,-17.462891 -2.49219,-0.9375 -11.13086,13.410157 0.67188,-17.339844 z m -79.30078,1.18164 -15.83984,5.466797 0.82031,2.38086 6.5664,-2.265625 5.78711,16.771484 2.70899,-0.935547 -5.78711,-16.771484 6.56641,-2.265625 z m -26.35938,11.597657 c -1.50372,0.03394 -3.15564,0.521862 -4.88281,1.480468 l -6.91015,3.835938 9.83203,17.712891 2.53125,-1.404297 -2.99219,-5.390625 4.37891,-2.429688 c 0.37957,-0.21052 0.74566,-0.446035 1.08593,-0.667969 l 6.83985,3.320313 2.75976,-1.53125 -7.50195,-3.615234 c 1.98845,-2.262199 2.30988,-5.022732 0.79297,-7.75586 -1.33434,-2.40411 -3.42739,-3.611251 -5.9336,-3.554687 z m -0.42578,2.658203 c 1.64556,-0.0696 2.95029,0.719143 3.82813,2.300781 1.40455,2.530658 0.5244,4.940436 -2.71485,6.738281 l -4.30273,2.386719 -4.42383,-7.970703 4.30274,-2.388672 c 1.21471,-0.674178 2.32321,-1.024648 3.31054,-1.066406 z M 265.49609,56.25 l -18.90234,11.716797 2.47656,1.660156 4.67188,-2.964844 8.9414,5.996094 -0.96875,5.447266 2.52344,1.693359 3.63867,-21.953125 z m -0.46484,3.240234 -1.89844,10.679688 -7.25976,-4.867188 z M 92.664062,64.851562 c -2.336803,0.102768 -4.700013,1.025605 -6.74414,2.785157 -4.71617,4.059553 -5.292603,10.399678 -1.421875,14.896484 3.870765,4.496806 10.225236,4.868184 14.941406,0.808594 4.672287,-4.021795 5.268567,-10.338694 1.378907,-14.857422 -2.187915,-2.541784 -5.149835,-3.764942 -8.154298,-3.632813 z m -0.113281,2.742188 c 2.220638,-0.06889 4.427963,0.866783 6.074219,2.779297 2.92668,3.400025 2.53479,8.090901 -0.865234,11.017578 -3.443906,2.964435 -8.141683,2.653931 -11.06836,-0.746094 -2.926639,-3.400025 -2.533711,-8.090253 0.910156,-11.054687 1.487512,-1.280422 3.222056,-1.942513 4.949219,-1.996094 z m 190.755859,2.240234 -14.08398,14.5625 9.96484,9.638672 1.75,-1.810547 -7.88477,-7.625 12.33399,-12.753906 z m -212.953124,12.451172 -1.580078,2.25 10.341796,14.083985 -16.759765,-4.939453 -1.529297,2.179687 10.203125,14.128905 -16.621094,-4.98437 -1.712891,2.43945 20.472657,6.0957 1.779297,-2.53515 -10.066407,-13.818363 16.417969,4.769533 1.746094,-2.488283 z m 229.822264,5.292969 -16.42969,11.853516 1.69336,2.345699 4.24805,-3.064449 5.21875,0.802734 -2.76172,11.558595 1.98047,2.74609 3.65234,-13.984372 12.45704,1.683592 -1.92969,-2.67578 -15.61328,-2.298828 9.17773,-6.619141 z"
           style="font-style:normal;font-variant:normal;font-weight:500;font-stretch:normal;font-family:Montserrat;-inkscape-font-specification:'Montserrat Medium';letter-spacing:0.98160416px;fill:url(#linearGradient1163);fill-opacity:1;stroke-width:0.36791828" />
      </g>
      <path
         id="path952"
         transform="matrix(0.26458333,0,0,0.26458333,637.2588,280.36741)"
         d="m 133.13867,310.63672 -8.14062,18.55273 2.65039,1.16407 2.10547,-4.79883 4.90429,-1.95703 3.48633,11.35937 3.09961,1.36133 -3.95117,-13.90234 11.58789,-4.8711 -3.02148,-1.32617 -14.61719,5.94336 4.54687,-10.36133 z m 92.41992,4.3164 c -1.09996,0.0135 -2.3448,0.2629 -3.71289,0.76172 l -8.53906,3.11328 6.94141,19.03321 9.08203,-3.31055 c 4.81296,-1.75487 6.60183,-4.53386 5.41211,-7.79687 -0.92206,-2.52881 -2.92086,-3.61669 -5.28711,-3.43164 1.22785,-1.27949 1.76329,-3.10726 1.00976,-5.17383 -0.77022,-2.11247 -2.48632,-3.2251 -4.90625,-3.19532 z m -0.40234,2.53907 c 1.31405,0.0642 2.25043,0.71504 2.70898,1.97265 0.73369,2.01219 -0.4667,3.62153 -3.24023,4.63282 l -5.57422,2.03125 -2.2207,-6.08985 5.57422,-2.0332 c 1.04009,-0.37923 1.96352,-0.5522 2.75195,-0.51367 z m -67.8125,2.42383 -3.26563,19.99414 2.85743,0.46679 2.43359,-14.91015 9.56445,16.86914 2.3418,0.38281 3.26367,-19.99609 -2.85547,-0.4668 -2.43554,14.91211 -9.5625,-16.87109 z m 45.16406,1.45312 -2.79492,0.27539 1.11719,11.34961 c 0.43903,4.46461 -1.43712,6.68412 -5.06641,7.04102 -3.62929,0.35678 -5.87155,-1.45923 -6.31055,-5.92383 l -1.11718,-11.34766 -2.88086,0.28321 1.1289,11.46289 c 0.57498,5.84723 4.10243,8.61295 9.40235,8.09179 5.32875,-0.52399 8.22342,-3.92038 7.64844,-9.76758 z m 26.55274,4.08789 c 1.39001,0.0374 2.35547,0.7035 2.85742,2.08008 0.80307,2.20256 -0.48171,3.74909 -3.5,4.84961 l -6.25391,2.28125 -2.31054,-6.33594 6.2539,-2.2793 c 1.13186,-0.41269 2.11912,-0.61814 2.95313,-0.5957 z"
         style="font-style:normal;font-variant:normal;font-weight:500;font-stretch:normal;font-size:7.65781116px;line-height:1.25;font-family:Montserrat;-inkscape-font-specification:'Montserrat Medium';letter-spacing:2.6987493px;word-spacing:0px;fill:url(#linearGradient1185);fill-opacity:1;stroke:none;stroke-width:0.36791828" />
      <g
         aria-label="WORTHY WALK"
         style="font-style:normal;font-variant:normal;font-weight:500;font-stretch:normal;font-size:7.65781116px;line-height:1.25;font-family:Montserrat;-inkscape-font-specification:'Montserrat Medium';letter-spacing:0.98160416px;word-spacing:0px;opacity:1;fill:#000000;fill-opacity:1;stroke:none;stroke-width:0.09734505"
         id="g1036"
         transform="translate(0,11.267762)">
        <g
           id="g1161">
          <path
             style="font-style:normal;font-variant:normal;font-weight:500;font-stretch:normal;font-family:Montserrat;-inkscape-font-specification:'Montserrat Medium';letter-spacing:0.98160416px;opacity:1;fill:#000000;fill-opacity:1;stroke-width:0.09734505"
             d="m 685.10187,277.39709 0.13023,0.23719 0.68833,0.0315 1.58646,2.90008 1.84847,-2.74505 0.60668,0.0274 0.1509,-0.22479 -0.75758,-0.0341 -1.84847,2.74505 -1.58646,-2.90008 z m -2.79672,0.16381 -0.75706,0.11265 0.0336,0.22635 0.72347,-0.10749 0.75344,5.07618 0.0336,-0.005 z m -3.80236,0.56431 -0.75757,0.11265 0.0336,0.22634 0.72398,-0.10748 0.33848,2.27996 3.04478,-0.45165 -0.0336,-0.22634 -3.01119,0.44648 z m 17.48369,0.47904 -0.20826,5.64823 0.008,0.003 0.19999,-5.41982 0.72967,0.2744 0.009,-0.22841 z m -20.98166,0.31264 -4.19096,1.44642 0.0713,0.20671 4.11965,-1.42162 0.14624,0.42323 0.0713,-0.0248 z m 24.48739,1.00459 -2.93574,3.53673 -0.009,0.24288 2.94504,-3.5481 0.65164,0.24495 0.008,-0.22841 z m -25.93588,0.4315 -0.0713,0.0248 1.45986,4.23075 0.0713,-0.0248 z m 13.50511,0.84284 -0.0744,1.65261 0.0104,5.3e-4 0.0739,-1.63556 z m 15.85692,0.0134 -2.91611,3.57032 -0.008,0.24185 2.92437,-3.58066 0.53692,0.20205 0.14417,-0.17725 z m -3.49798,0.0703 -0.007,0.009 -0.12971,4.28139 0.007,0.003 z m -20.44785,0.0114 -0.0336,0.005 0.3173,2.13682 0.0336,-0.005 z m -10.94197,0.69454 c -0.39786,0.009 -0.83493,0.13807 -1.29191,0.3917 l -1.82831,1.01441 0.0982,0.17725 1.73012,-0.96015 c 0.45698,-0.25363 0.89405,-0.3827 1.29191,-0.3917 0.6631,-0.015 1.21689,0.30442 1.56994,0.94051 0.14479,0.26089 0.22412,0.52251 0.24443,0.77876 0.0217,-0.32886 -0.0557,-0.67015 -0.24443,-1.01027 -0.35305,-0.63609 -0.90684,-0.95548 -1.56994,-0.94051 z m -2.02881,1.7942 -0.0982,0.0548 1.17047,2.10891 1.13843,-0.632 c 0.64669,-0.35891 0.93719,-0.80976 0.88161,-1.29708 -0.047,0.39809 -0.33869,0.76425 -0.88161,1.06557 l -1.13843,0.632 z m 41.50289,0.1912 -5.00124,3.10059 0.17931,0.12041 4.82193,-2.98948 0.59531,0.39894 0.0346,-0.20826 z m -37.98424,1.06971 c -0.0408,0.057 -0.0815,0.1141 -0.12971,0.16898 l 1.76165,0.84904 0.22324,-0.12402 z m 37.86125,0.0196 -0.0465,0.0295 -0.45578,2.5647 -1.74357,-1.16892 -0.17725,0.11265 1.92082,1.28778 z m -45.60548,1.18701 c -0.61828,0.0272 -1.24355,0.27136 -1.78439,0.73691 -0.73095,0.62918 -1.08302,1.4653 -1.04593,2.28926 0.0329,-0.74708 0.38348,-1.48754 1.04593,-2.05775 0.54084,-0.46555 1.16611,-0.70971 1.78439,-0.73691 0.79493,-0.035 1.5786,0.28866 2.15749,0.96118 0.42624,0.49518 0.64608,1.0722 0.67282,1.65365 0.0285,-0.65855 -0.18997,-1.32422 -0.67282,-1.88516 -0.57889,-0.67252 -1.36256,-0.99614 -2.15749,-0.96118 z m 5.71179,0.21084 -0.0982,0.0543 0.69349,1.24902 0.0982,-0.0543 z m 44.72905,1.10743 -3.72638,3.85299 0.11575,0.11214 3.61063,-3.73362 0.4346,0.42013 0.11576,-0.11938 z m -5.4932,0.95394 -0.21963,1.23455 0.0367,0.0248 0.21962,-1.23455 z m -42.8563,0.66198 c -0.0339,0.53043 -0.28439,1.04691 -0.74311,1.44177 -0.9112,0.78434 -2.15415,0.70219 -2.9285,-0.1974 -0.32077,-0.37265 -0.48824,-0.80395 -0.51263,-1.23714 -0.0323,0.50911 0.13465,1.02953 0.51263,1.46865 0.77435,0.89959 2.0173,0.98174 2.9285,0.1974 0.52536,-0.45221 0.77699,-1.06367 0.74311,-1.67328 z m -7.99434,1.67845 -0.41806,0.59531 0.0832,0.11317 0.33487,-0.47697 3.27473,4.43332 0.0832,-0.11885 z m 53.74659,0.7245 -0.11576,0.11938 1.97042,1.90582 0.11576,-0.11989 z m 7.06055,0.67593 -4.34702,3.13624 0.11007,0.15245 4.23695,-3.05718 0.33796,0.46819 0.11007,-0.0791 z m -62.92329,1.61437 -0.40463,0.57671 0.0822,0.11421 0.32246,-0.45941 4.43435,1.3069 -0.21704,-0.29559 z m 61.2097,0.79737 -0.26665,0.19224 4.13101,0.60823 0.32556,0.45165 0.18501,0.0248 -0.51057,-0.70797 z m -60.54153,0.36174 2.58072,3.54242 0.0827,-0.11783 -2.44947,-3.36258 z m 60.80766,0.60823 -0.67748,2.83445 0.0413,0.0579 0.68937,-2.88407 z m -63.57855,1.22886 -0.4532,0.64544 0.13436,0.0398 0.31884,-0.45372 4.39767,1.31827 -0.21343,-0.29559 z"
             id="path1016" />
          <path
             style="font-style:normal;font-variant:normal;font-weight:500;font-stretch:normal;font-family:Montserrat;-inkscape-font-specification:'Montserrat Medium';letter-spacing:0.98160416px;opacity:1;fill:#ffff00;fill-opacity:1;stroke-width:0.09734505"
             d="m 685.10187,277.50715 1.96526,3.57705 0.004,-0.0915 -1.91358,-3.48299 z m 4.94647,0.22325 -2.22054,3.31142 -0.0837,1.85157 -0.75241,-0.0341 -0.005,0.0992 0.75706,0.0341 0.0837,-1.85157 2.28513,-3.40754 z m -8.48578,0.0512 -0.0145,0.002 0.3235,2.18281 0.0145,-0.002 z m -3.80287,0.5643 -0.0145,0.002 0.78704,5.302 0.75757,-0.11214 -0.0145,-0.0971 -0.74311,0.11007 z m 18.96163,0.64441 -0.17415,4.49016 0.004,-0.005 0.17363,-4.48396 z m -21.52944,0.57774 -1.70687,0.58911 0.0305,0.0889 1.70688,-0.58911 z m 24.95662,0.71055 -0.15451,4.5222 0.004,-0.004 0.154,-4.51704 z m -27.38024,0.12609 -1.73736,0.59945 -0.18655,-0.54105 -0.0305,0.0103 0.21704,0.62994 1.73736,-0.59945 1.53117,4.43745 0.71676,-0.24753 -0.0305,-0.0889 -0.68626,0.2372 z m 9.21598,0.21859 -3.0453,0.45217 0.0145,0.0971 3.03082,-0.4501 0.35088,2.36316 0.75706,-0.11213 -0.0145,-0.0972 -0.74259,0.11008 z m 17.43614,0.43563 -2.87528,3.49281 -0.76326,-0.2868 -0.004,0.0977 0.76688,0.28835 2.87217,-3.48919 z m 4.11758,0.49351 -3.5016,4.31137 -0.74982,-0.28215 -0.003,0.0982 0.75293,0.28319 3.56309,-4.38733 z m -35.62005,1.14722 c -0.26123,0.011 -0.55453,0.10377 -0.87591,0.28215 l -1.13844,0.63201 0.0419,0.076 1.09658,-0.60875 c 0.32138,-0.17838 0.61468,-0.27111 0.87591,-0.28215 0.43539,-0.0184 0.7806,0.19028 1.01286,0.60875 0.10467,0.18859 0.15963,0.37445 0.16795,0.555 0.0113,-0.21129 -0.044,-0.43091 -0.16795,-0.65422 -0.23226,-0.41847 -0.57747,-0.62715 -1.01286,-0.60875 z m -2.96571,0.77877 -0.0419,0.0233 2.60139,4.68705 0.66973,-0.37155 -0.0419,-0.076 -0.62787,0.3483 z m 4.89479,0.35398 c 0.003,0.41183 -0.14902,0.80693 -0.4563,1.15652 l 0.0558,0.0269 c 0.29074,-0.36018 0.42925,-0.76353 0.40049,-1.18339 z m 38.2726,0.66094 -0.94775,5.71903 -0.65164,-0.43718 -0.016,0.0889 0.66766,0.44752 0.96273,-5.80843 z m -0.73794,0.34623 -2.42311,1.53789 0.076,0.0512 2.3275,-1.47743 z m -38.54597,0.63252 c -0.09,0.0587 -0.18689,0.12104 -0.28732,0.17674 l -1.15858,0.64285 0.0419,0.076 1.11673,-0.6196 c 0.10043,-0.0557 0.19729,-0.11801 0.28732,-0.17673 l 1.80971,0.8785 0.73019,-0.40514 -0.0956,-0.046 -0.63459,0.35192 z m 35.55907,1.26504 -1.2361,0.78445 -0.57826,-0.38757 -0.077,0.0475 0.65525,0.43925 1.2361,-0.78445 2.34973,1.57613 0.016,-0.0889 z m -42.64856,0.2465 c -0.45697,0.0142 -0.91591,0.18883 -1.30948,0.52761 -0.52171,0.44908 -0.77743,1.04811 -0.75654,1.64693 0.009,-0.56529 0.26368,-1.12346 0.75654,-1.54771 0.39357,-0.33878 0.85251,-0.51343 1.30948,-0.52761 0.58755,-0.0182 1.17157,0.22933 1.60714,0.73535 0.33161,0.38524 0.50075,0.833 0.51676,1.28003 0.007,-0.47966 -0.16057,-0.96545 -0.51676,-1.37925 -0.43557,-0.50602 -1.01959,-0.75355 -1.60714,-0.73535 z m 50.97157,1.17615 -3.21376,3.32331 0.0496,0.0481 3.21376,-3.32331 z m -48.10817,0.86868 c -0.0108,0.77085 -0.36225,1.53779 -1.04077,2.12184 -1.24782,1.0741 -2.92911,0.97584 -3.95325,-0.21394 -0.43788,-0.50872 -0.6588,-1.10667 -0.67282,-1.70843 -0.009,0.63501 0.21086,1.27096 0.67282,1.80765 1.02414,1.18978 2.70543,1.28804 3.95325,0.21394 0.70767,-0.60914 1.06025,-1.41709 1.04077,-2.22106 z m 43.93065,2.44895 -0.0496,0.0512 2.63653,2.55023 0.46302,-0.47904 -0.0496,-0.0481 -0.41341,0.42788 z m -53.04948,0.0372 -0.0357,0.0506 2.64324,3.59978 0.093,0.0274 z m 61.59056,1.41128 -2.38125,1.71772 0.1142,0.0171 2.31407,-1.66967 z m -63.69379,1.58543 -0.0351,0.0501 2.60811,3.61115 0.0915,0.0274 z m 1.03766,0.30179 0.0915,0.12609 4.25245,1.23507 0.46199,-0.65836 -0.0356,-0.0486 -0.42634,0.60771 z m 59.48009,0.40411 -1.12396,0.81081 -0.40101,-0.55553 -0.047,0.0341 0.44803,0.62064 1.12396,-0.81081 1.35806,0.20877 0.0227,-0.0956 z m 2.14044,0.29714 -0.96635,3.70004 -0.50643,-0.70229 -0.0176,0.0744 0.52399,0.72708 0.96635,-3.70003 3.29593,0.44545 -0.0791,-0.11007 z m -64.78674,2.02985 -0.0579,0.0822 5.41672,1.61282 0.47078,-0.67076 -0.0357,-0.0486 -0.43512,0.62012 z"
             id="path1086" />
        </g>
      </g>
      <path
         id="path1187"
         transform="matrix(0.26458333,0,0,0.26458333,637.2588,280.36741)"
         d="m 135.76172,311.86719 -4.51953,10.29687 0.041,-0.0156 4.50586,-10.26953 z m 89.39453,5.62695 c -0.78845,-0.0386 -1.71186,0.13447 -2.75195,0.51367 l -5.57422,2.03321 0.0254,0.0664 5.54883,-2.02344 c 1.04009,-0.3792 1.9635,-0.55222 2.75195,-0.51367 1.31407,0.0643 2.25045,0.71502 2.70898,1.97266 0.0917,0.25152 0.15358,0.49582 0.18555,0.73437 -0.0283,-0.26305 -0.0838,-0.53147 -0.18555,-0.81054 -0.45853,-1.25764 -1.39491,-1.90841 -2.70898,-1.97266 z m -76.36328,0.0898 -11.5,4.83399 0.0195,0.0684 11.56836,-4.86328 z m 64.53906,1.3125 -0.0254,0.01 6.94141,19.0332 9.08203,-3.31054 c 3.92264,-1.43022 5.83587,-3.54066 5.76562,-6.03907 0.0284,2.4642 -1.88403,4.54764 -5.76562,5.96289 l -9.08203,3.31055 z m 17.46875,1.4629 c -0.0812,1.15165 -0.57873,2.16562 -1.3457,2.96484 0.0219,-0.002 0.0426,10e-4 0.0644,0 0.74413,-0.8051 1.21855,-1.81716 1.28125,-2.96484 z m -31.08789,1.36328 1.11719,11.34961 c 0.0274,0.27903 0.0452,0.54895 0.0547,0.81054 -0.008,-0.28596 -0.0245,-0.57963 -0.0547,-0.88672 l -1.10938,-11.27343 z m -25.18555,1.07617 -3.25195,19.92187 -2.3418,-0.38281 -9.56445,-16.86914 -2.43359,14.91016 -2.84571,-0.46485 -0.0117,0.0742 2.85743,0.4668 2.43359,-14.91016 9.56445,16.86914 2.3418,0.38282 3.26367,-19.9961 z m 10.92774,0.32617 1.1289,11.46289 c 0.57498,5.84723 4.10243,8.61296 9.40235,8.0918 4.99992,-0.49166 7.85824,-3.51372 7.71679,-8.71485 0.1111,5.15368 -2.74173,8.14946 -7.71679,8.63868 -5.29992,0.52115 -8.82737,-2.24457 -9.40235,-8.0918 L 185.46289,323.125 Z m -50.79688,0.47461 -4.90429,1.95703 -2.10547,4.79883 -2.62305,-1.15235 -0.0273,0.0645 2.65039,1.16406 2.10547,-4.79883 4.90429,-1.95703 3.48633,11.35938 3.09961,1.36132 -0.0254,-0.0879 -3.07422,-1.34961 z m 94.40235,1.85937 c -0.83399,-0.0224 -1.82124,0.18302 -2.95313,0.59571 l -6.2539,2.27929 0.0254,0.0664 6.22851,-2.26953 c 1.13189,-0.41269 2.11914,-0.61815 2.95313,-0.5957 1.39003,0.0378 2.35546,0.70349 2.85742,2.08007 0.19118,0.52436 0.25553,1.00812 0.21484,1.46094 0.056,-0.47366 -0.0132,-0.98404 -0.21484,-1.53711 -0.50196,-1.37658 -1.46739,-2.04228 -2.85742,-2.08008 z"
         style="font-style:normal;font-variant:normal;font-weight:500;font-stretch:normal;font-size:7.65781116px;line-height:1.25;font-family:Montserrat;-inkscape-font-specification:'Montserrat Medium';letter-spacing:2.6987493px;word-spacing:0px;opacity:1;fill:#fff400;fill-opacity:1;stroke:none;stroke-width:0.36791828;stroke-opacity:1" />
      <path
         id="path1189"
         transform="matrix(0.26458333,0,0,0.26458333,637.2588,280.36741)"
         d="m 133.13867,310.5957 -8.14062,18.55274 0.23047,0.10156 7.91015,-18.0293 2.41992,1.0625 0.23047,-0.52343 z m 92.41992,4.31641 c -1.09995,0.0151 -2.34477,0.26305 -3.71289,0.76172 l -8.53906,3.11328 0.20117,0.55078 8.33789,-3.03906 c 1.36812,-0.49867 2.61294,-0.7466 3.71289,-0.76172 2.41996,-0.0298 4.13606,1.08282 4.90625,3.19531 0.20245,0.55518 0.30408,1.09076 0.33204,1.60547 0.0526,-0.69833 -0.0462,-1.44652 -0.33204,-2.23047 -0.77019,-2.11249 -2.48629,-3.22509 -4.90625,-3.19531 z m -79.69921,1.26562 -14.28321,5.8086 -0.33398,0.75976 14.61719,-5.94336 2.29492,1.00782 0.72656,-0.30664 z m 11.48437,3.69727 -3.26563,19.99414 0.0996,0.0156 3.16602,-19.38477 2.3418,0.38086 9.5625,16.87109 2.43554,-14.91211 2.75586,0.45118 0.0996,-0.60938 -2.85547,-0.4668 -2.43554,14.91211 -9.5625,-16.87109 z m 59.6875,0.67383 -0.20117,0.0742 2.2207,6.08984 5.57422,-2.03125 c 2.37814,-0.86712 3.59029,-2.17734 3.42773,-3.80078 -0.17122,1.33611 -1.36195,2.42255 -3.42773,3.17578 l -5.57422,2.03125 z m -14.52344,0.77929 -2.79492,0.2754 0.0606,0.61914 2.73437,-0.26954 1.12696,11.46485 c 0.0323,0.32802 0.0499,0.64646 0.0605,0.95898 0.007,-0.50832 -0.006,-1.03155 -0.0605,-1.58398 z m -14.17187,1.39454 -2.88086,0.2832 0.0605,0.61914 2.82032,-0.27734 1.11718,11.34765 c 0.439,4.46461 2.68126,6.28062 6.31055,5.92383 3.35581,-0.33001 5.20737,-2.25688 5.1211,-6.07422 -0.12182,3.40592 -1.95237,5.13761 -5.1211,5.44922 -3.62929,0.35679 -5.87155,-1.45922 -6.31055,-5.92383 z m -50.88477,0.21093 -0.1582,0.0664 3.74805,13.1875 0.20312,0.0898 z m 92.87305,0.33789 c -0.11762,-0.007 -0.24135,0.004 -0.36133,0.004 -0.15352,0.22077 -0.3196,0.43474 -0.50781,0.63086 2.36625,-0.18505 4.36505,0.90283 5.28711,3.43164 0.19813,0.5434 0.30714,1.07188 0.33984,1.58594 0.0498,-0.7061 -0.0604,-1.44442 -0.33984,-2.21094 -0.8068,-2.2127 -2.43758,-3.32257 -4.41797,-3.44141 z m -10.26953,5.57032 -0.20117,0.0742 2.31054,6.33593 6.25391,-2.28125 c 2.56295,-0.9345 3.85894,-2.19606 3.70508,-3.90234 -0.18484,1.39469 -1.46422,2.46028 -3.70508,3.27734 l -6.25391,2.28125 z"
         style="font-style:normal;font-variant:normal;font-weight:500;font-stretch:normal;font-size:7.65781116px;line-height:1.25;font-family:Montserrat;-inkscape-font-specification:'Montserrat Medium';letter-spacing:2.6987493px;word-spacing:0px;opacity:0.5;fill:#000000;fill-opacity:1;stroke:none;stroke-width:0.36791828" />
      <path
         id="path1343"
         d="m 685.78858,280.80228 a 48.12072,48.120715 0 0 0 -0.76998,0.0388 l 0.0765,4.1677 a 43.938904,43.938899 0 0 1 0.6935,-0.0248 43.938904,43.938899 0 0 1 0.26768,0.0134 l 0.03,-4.18476 a 48.12072,48.120715 0 0 0 -0.29765,-0.0103 z m 2.29237,0.0811 -0.22996,4.20388 a 43.938904,43.938899 0 0 1 0.95549,0.0475 l 0.33642,-4.21369 a 48.12072,48.120715 0 0 0 -1.06195,-0.0377 z m -5.05241,0.0568 a 48.12072,48.120715 0 0 0 -1.05988,0.0532 l 0.3762,4.14134 a 43.938904,43.938899 0 0 1 0.95498,-0.0625 z m 8.08581,0.21601 -0.52141,4.11034 a 43.938904,43.938899 0 0 1 0.94568,0.14314 l 0.62528,-4.12636 a 48.12072,48.120715 0 0 0 -1.04955,-0.12712 z m -11.11922,0.0356 a 48.12072,48.120715 0 0 0 -1.04489,0.15813 l 0.66869,4.11551 a 43.938904,43.938899 0 0 1 0.94826,-0.11523 z m 14.13351,0.34675 -0.82011,4.13825 a 43.938904,43.938899 0 0 1 0.94775,0.14366 l 0.90279,-4.05091 a 48.12072,48.120715 0 0 0 -1.03043,-0.231 z m -17.13539,0.10697 a 48.12072,48.120715 0 0 0 -1.04025,0.18604 l 0.95964,4.10776 a 43.938904,43.938899 0 0 1 0.93379,-0.20981 z m 20.0949,0.55707 -1.08727,4.03593 a 43.938904,43.938899 0 0 1 0.92965,0.2372 l 1.18908,-4.04162 a 48.12072,48.120715 0 0 0 -1.03146,-0.23151 z m -23.05079,0.11834 a 48.12072,48.120715 0 0 0 -1.0232,0.26097 l 1.2082,3.961 a 43.938904,43.938899 0 0 1 0.93896,-0.21033 z m 25.97619,0.6842 -1.33635,3.91707 a 43.938904,43.938899 0 0 1 0.90899,0.32091 l 1.4304,-3.90467 a 48.12072,48.120715 0 0 0 -1.00304,-0.33331 z m -28.90573,0.1142 a 48.12072,48.120715 0 0 0 -0.9927,0.36226 l 1.47794,3.915 a 43.938904,43.938899 0 0 1 0.91416,-0.30385 z m 31.79134,0.8444 -1.61489,3.89898 a 43.938904,43.938899 0 0 1 0.91002,0.33228 l 1.68517,-3.82974 a 48.12072,48.120715 0 0 0 -0.9803,-0.40152 z m -34.64595,0.19792 a 48.12072,48.120715 0 0 0 -0.99683,0.3638 l 1.73219,3.83801 a 43.938904,43.938899 0 0 1 0.88419,-0.39533 z m 37.43803,1.01441 -1.82986,3.74085 a 43.938904,43.938899 0 0 1 0.87488,0.42272 l 1.92443,-3.72949 a 48.12072,48.120715 0 0 0 -0.96945,-0.43408 z m -40.23269,0.19378 a 48.12072,48.120715 0 0 0 -0.95601,0.46147 l 1.93787,3.67213 a 43.938904,43.938899 0 0 1 0.88883,-0.39791 z m 42.97774,1.13843 -2.05569,3.62614 a 43.938904,43.938899 0 0 1 0.85886,0.46509 l 2.11926,-3.56206 a 48.12072,48.120715 0 0 0 -0.92243,-0.52917 z m -45.72796,0.19121 a 48.12072,48.120715 0 0 0 -0.90743,0.55604 l 2.17816,3.58634 a 43.938904,43.938899 0 0 1 0.84697,-0.48576 z m 48.38103,1.33067 -2.28772,3.52691 a 43.938904,43.938899 0 0 1 0.83561,0.51212 l 2.3642,-3.4861 a 48.12072,48.120715 0 0 0 -0.91209,-0.55293 z m -50.98862,0.2682 a 48.12072,48.120715 0 0 0 -0.9095,0.55758 l 2.37608,3.43752 a 43.938904,43.938899 0 0 1 0.81959,-0.53847 z m 53.52593,1.44694 -2.4598,3.34501 a 43.938904,43.938899 0 0 1 0.78238,0.5948 l 2.5461,-3.31866 a 48.12072,48.120715 0 0 0 -0.86868,-0.62115 z m -56.06583,0.26561 a 48.12072,48.120715 0 0 0 -0.85007,0.64596 l 2.56056,3.27783 a 43.938904,43.938899 0 0 1 0.80047,-0.57205 z m 58.53132,1.56166 -2.67581,3.22823 a 43.938904,43.938899 0 0 1 0.77721,0.60772 l 2.70216,-3.13005 a 48.12072,48.120715 0 0 0 -0.80356,-0.7059 z m -60.97509,0.29611 a 48.12072,48.120715 0 0 0 -0.80977,0.69763 l 2.77657,3.16053 a 43.938904,43.938899 0 0 1 0.74001,-0.65009 z m 63.28295,1.73116 -2.85512,3.067 a 43.938904,43.938899 0 0 1 0.7214,0.67231 l 2.93781,-3.03289 a 48.12072,48.120715 0 0 0 -0.80409,-0.70642 z m -65.55775,0.33125 a 48.12072,48.120715 0 0 0 -0.7829,0.72915 l 2.9161,2.95796 a 43.938904,43.938899 0 0 1 0.72141,-0.67283 z m 67.7385,1.83141 -2.99206,2.86649 a 43.938904,43.938899 0 0 1 0.65112,0.74104 l 3.06958,-2.82515 a 48.12072,48.120715 0 0 0 -0.72864,-0.78238 z m -69.92235,0.32918 a 48.12072,48.120715 0 0 0 -0.70538,0.80357 l 3.09128,2.79569 a 43.938904,43.938899 0 0 1 0.6718,-0.72088 z m 72.00801,1.92701 -3.20859,2.73782 a 43.938904,43.938899 0 0 1 0.65061,0.74052 l 3.20549,-2.62619 a 48.12072,48.120715 0 0 0 -0.64751,-0.85215 z m -74.03476,0.38034 a 48.12072,48.120715 0 0 0 -0.68626,0.81959 l 3.28817,2.64583 a 43.938904,43.938899 0 0 1 0.59635,-0.78393 z m 75.89253,2.06396 -3.33107,2.52543 a 43.938904,43.938899 0 0 1 0.57155,0.79891 l 3.40547,-2.47478 a 48.12072,48.120715 0 0 0 -0.64595,-0.84956 z m -77.74306,0.38395 a 48.12072,48.120715 0 0 0 -0.62012,0.86713 l 3.36311,2.39882 a 43.938904,43.938899 0 0 1 0.59479,-0.78238 z m 79.48042,2.14044 -3.43803,2.3027 a 43.938904,43.938899 0 0 1 0.48834,0.85163 l 3.50676,-2.24586 a 48.12072,48.120715 0 0 0 -0.55707,-0.90847 z m -81.21985,0.38034 a 48.12072,48.120715 0 0 0 -0.53071,0.92501 l 3.53983,2.22312 a 43.938904,43.938899 0 0 1 0.51211,-0.83458 z m 82.81872,2.22777 -3.63699,2.13476 a 43.938904,43.938899 0 0 1 0.48576,0.84646 l 3.64112,-2.03606 a 48.12072,48.120715 0 0 0 -0.48989,-0.94516 z m -84.34111,0.42582 a 48.12072,48.120715 0 0 0 -0.52865,0.92242 l 3.70107,2.0252 a 43.938904,43.938899 0 0 1 0.42478,-0.87953 z m 85.6971,2.31148 -3.71812,1.89033 a 43.938904,43.938899 0 0 1 0.39636,0.88676 l 3.78271,-1.82211 a 48.12072,48.120715 0 0 0 -0.46095,-0.95498 z m -87.05515,0.42065 a 48.12072,48.120715 0 0 0 -0.43305,0.9679 l 3.74861,1.76268 a 43.938904,43.938899 0 0 1 0.42219,-0.87385 z m 88.2897,2.36264 -3.81476,1.65107 a 43.938904,43.938899 0 0 1 0.3297,0.91053 l 3.84834,-1.56579 a 48.12072,48.120715 0 0 0 -0.36328,-0.99581 z m -89.5289,0.41858 a 48.12072,48.120715 0 0 0 -0.33435,1.00666 l 3.90105,1.54409 a 43.938904,43.938899 0 0 1 0.33125,-0.90795 z m 90.57121,2.43706 -3.95686,1.42214 a 43.938904,43.938899 0 0 1 0.30334,0.91312 l 3.98994,-1.33273 a 48.12072,48.120715 0 0 0 -0.33642,-1.00253 z m -91.53033,0.44907 a 48.12072,48.120715 0 0 0 -0.33331,1.00253 l 3.98529,1.28725 a 43.938904,43.938899 0 0 1 0.25476,-0.92914 z m 92.35664,2.47272 -3.99769,1.14825 a 43.938904,43.938899 0 0 1 0.21032,0.93586 l 4.04833,-1.06195 a 48.12072,48.120715 0 0 0 -0.26096,-1.02216 z m -93.18708,0.44493 a 48.12072,48.120715 0 0 0 -0.23099,1.02992 l 4.03128,1.01389 a 43.938904,43.938899 0 0 1 0.23719,-0.92811 z m 93.88988,2.50424 -4.09743,0.8847 a 43.938904,43.938899 0 0 1 0.18914,0.93793 l 4.06642,-0.77721 a 48.12072,48.120715 0 0 0 -0.15813,-1.04542 z m -94.55392,0.45424 a 48.12072,48.120715 0 0 0 -0.1726,1.04283 l 4.14342,0.74672 a 43.938904,43.938899 0 0 1 0.14314,-0.94568 z m 95.00764,2.54765 -4.14652,0.59944 a 43.938904,43.938899 0 0 1 0.11524,0.94878 l 4.18941,-0.50126 a 48.12072,48.120715 0 0 0 -0.15813,-1.04696 z m -95.41898,0.46095 a 48.12072,48.120715 0 0 0 -0.12765,1.05006 l 4.12637,0.44907 a 43.938904,43.938899 0 0 1 0.11627,-0.94878 z m 95.69958,2.56832 -4.12636,0.30076 a 43.938904,43.938899 0 0 1 0.0336,0.95756 l 4.146,-0.1974 a 48.12072,48.120715 0 0 0 -0.0532,-1.06092 z m -95.99724,0.46095 a 48.12072,48.120715 0 0 0 -0.0377,1.06299 l 4.19664,0.15348 a 43.938904,43.938899 0 0 1 0.0481,-0.95653 z m 91.96751,2.59416 a 43.938904,43.938899 0 0 1 -0.0481,0.96015 l 4.19251,0.10697 a 48.12072,48.120715 0 0 0 0.0377,-1.06712 z m -87.86233,0.42013 -4.17288,0.046 a 48.12072,48.120715 0 0 0 0.0532,1.06454 l 4.15375,-0.15193 a 43.938904,43.938899 0 0 1 -0.0341,-0.9586 z m 87.72487,2.33164 a 43.938904,43.938899 0 0 1 -0.0481,0.95601 l 4.15995,0.40722 a 48.12072,48.120715 0 0 0 0.0992,-1.05627 z m -87.62152,0.42013 -4.12378,0.3452 a 48.12072,48.120715 0 0 0 0.0532,1.05988 l 4.18579,-0.45527 a 43.938904,43.938899 0 0 1 -0.11524,-0.94981 z m 87.37244,2.3151 a 43.938904,43.938899 0 0 1 -0.14263,0.94413 l 4.13722,0.70125 a 48.12072,48.120715 0 0 0 0.12764,-1.04955 z m -87.0412,0.41083 -4.12791,0.6413 a 48.12072,48.120715 0 0 0 0.15813,1.04439 l 4.08502,-0.73639 a 43.938904,43.938899 0 0 1 -0.11524,-0.9493 z m 86.63089,2.30529 a 43.938904,43.938899 0 0 1 -0.18603,0.93999 l 4.02973,0.96945 a 48.12072,48.120715 0 0 0 0.23099,-1.02991 z m -86.18388,0.40462 -4.1212,0.9338 a 48.12072,48.120715 0 0 0 0.25993,1.02319 l 4.07055,-1.02371 a 43.938904,43.938899 0 0 1 -0.20928,-0.93328 z m 85.55394,2.27377 a 43.938904,43.938899 0 0 1 -0.23771,0.93069 l 4.0256,1.25677 a 48.12072,48.120715 0 0 0 0.2527,-1.02681 z m -84.95088,0.41341 -3.97495,1.18545 a 48.12072,48.120715 0 0 0 0.26148,1.02371 l 3.97237,-1.28364 a 43.938904,43.938899 0 0 1 -0.2589,-0.92552 z m 84.20933,2.24896 a 43.938904,43.938899 0 0 1 -0.33073,0.90537 l 3.90312,1.5012 a 48.12072,48.120715 0 0 0 0.33331,-1.00356 z m -83.38199,0.38757 -3.93154,1.45572 a 48.12072,48.120715 0 0 0 0.36276,0.99271 l 3.87315,-1.53272 a 43.938904,43.938899 0 0 1 -0.30437,-0.91571 z m 82.43062,2.21847 a 43.938904,43.938899 0 0 1 -0.33279,0.91209 l 3.75791,1.72444 a 48.12072,48.120715 0 0 0 0.43253,-0.96738 z m -81.49011,0.39377 -3.82871,1.70016 a 48.12072,48.120715 0 0 0 0.41341,0.97617 l 3.81114,-1.79214 a 43.938904,43.938899 0 0 1 -0.39584,-0.88419 z m 80.37029,2.15749 a 43.938904,43.938899 0 0 1 -0.42323,0.87644 l 3.72173,1.99212 a 48.12072,48.120715 0 0 0 0.4346,-0.97048 z m -79.23134,0.38809 -3.69022,1.91927 a 48.12072,48.120715 0 0 0 0.46251,0.95653 l 3.63182,-1.98748 a 43.938904,43.938899 0 0 1 -0.40411,-0.88832 z m 77.99627,2.12701 a 43.938904,43.938899 0 0 1 -0.51108,0.83302 l 3.54914,2.18384 a 48.12072,48.120715 0 0 0 0.52917,-0.92294 z m -76.68266,0.34623 -3.60649,2.16111 a 48.12072,48.120715 0 0 0 0.55655,0.90692 l 3.53622,-2.22002 a 43.938904,43.938899 0 0 1 -0.48628,-0.84801 z m 75.2135,2.05 a 43.938904,43.938899 0 0 1 -0.51315,0.83716 l 3.40858,2.38538 a 48.12072,48.120715 0 0 0 0.61805,-0.86971 z m -73.78671,0.37517 -3.4339,2.34405 a 48.12072,48.120715 0 0 0 0.56637,0.9064 l 3.43804,-2.45256 a 43.938904,43.938899 0 0 1 -0.57051,-0.79789 z m 72.19352,1.95079 a 43.938904,43.938899 0 0 1 -0.59479,0.7829 l 3.29954,2.60811 a 48.12072,48.120715 0 0 0 0.62167,-0.8692 z m -70.55279,0.34365 -3.29903,2.54713 a 48.12072,48.120715 0 0 0 0.64647,0.84956 l 3.22565,-2.59571 a 43.938904,43.938899 0 0 1 -0.57309,-0.80098 z m 68.84075,1.90841 a 43.938904,43.938899 0 0 1 -0.66145,0.73018 l 3.10627,2.76056 a 48.12072,48.120715 0 0 0 0.70538,-0.80305 z m -67.07135,0.29662 -3.18275,2.76417 a 48.12072,48.120715 0 0 0 0.72915,0.78238 l 3.10369,-2.80654 a 43.938904,43.938899 0 0 1 -0.65009,-0.74001 z m 65.15157,1.78439 a 43.938904,43.938899 0 0 1 -0.67179,0.7214 l 2.96261,2.95434 a 48.12072,48.120715 0 0 0 0.75189,-0.76067 z m -63.2814,0.34261 -2.95951,2.88458 a 48.12072,48.120715 0 0 0 0.72967,0.7829 l 2.95176,-2.99465 a 43.938904,43.938899 0 0 1 -0.72192,-0.67283 z m 61.26964,1.65055 a 43.938904,43.938899 0 0 1 -0.74001,0.65009 l 2.79518,3.12642 a 48.12072,48.120715 0 0 0 0.78187,-0.72864 z m -59.19638,0.2806 -2.81947,3.08198 a 48.12072,48.120715 0 0 0 0.80305,0.70539 l 2.7373,-3.11558 a 43.938904,43.938899 0 0 1 -0.72088,-0.67179 z m 57.0699,1.5875 a 43.938904,43.938899 0 0 1 -0.77515,0.60617 l 2.58227,3.24682 a 48.12072,48.120715 0 0 0 0.8506,-0.64698 z m -54.915,0.24495 -2.66702,3.27628 a 48.12072,48.120715 0 0 0 0.86662,0.62632 l 2.5833,-3.30729 a 43.938904,43.938899 0 0 1 -0.7829,-0.59531 z m 52.64072,1.43298 a 43.938904,43.938899 0 0 1 -0.79789,0.57103 l 2.42466,3.44217 a 48.12072,48.120715 0 0 0 0.86248,-0.62839 z m -50.39228,0.27647 -2.42259,3.35587 a 48.12072,48.120715 0 0 0 0.86713,0.62012 l 2.37764,-3.43907 a 43.938904,43.938899 0 0 1 -0.82218,-0.53692 z m 48.0534,1.29398 a 43.938904,43.938899 0 0 1 -0.84904,0.48731 l 2.204,3.55585 a 48.12072,48.120715 0 0 0 0.90744,-0.55603 z m -45.66594,0.20257 -2.24793,3.53519 a 48.12072,48.120715 0 0 0 0.92294,0.52968 l 2.15853,-3.55379 a 43.938904,43.938899 0 0 1 -0.83354,-0.51108 z m 43.22991,1.19476 a 43.938904,43.938899 0 0 1 -0.85627,0.46561 l 1.9668,3.64473 a 48.12072,48.120715 0 0 0 0.95808,-0.46302 z m -40.78975,0.18965 -2.0376,3.6711 a 48.12072,48.120715 0 0 0 0.94929,0.47749 l 1.96526,-3.72484 a 43.938904,43.938899 0 0 1 -0.87695,-0.42375 z m 38.26898,1.02061 a 43.938904,43.938899 0 0 1 -0.88574,0.39636 l 1.77251,3.82974 a 48.12072,48.120715 0 0 0 0.95446,-0.46147 z m -35.75286,0.19482 -1.78904,3.74603 a 48.12072,48.120715 0 0 0 0.96687,0.43253 l 1.70894,-3.78633 a 43.938904,43.938899 0 0 1 -0.88677,-0.39223 z m 33.19488,0.90176 a 43.938904,43.938899 0 0 1 -0.91778,0.30489 l 1.51102,3.8902 a 48.12072,48.120715 0 0 0 0.99426,-0.36328 z m -30.60382,0.11265 -1.572,3.90002 a 48.12072,48.120715 0 0 0 1.00459,0.33383 l 1.4733,-3.90312 a 43.938904,43.938899 0 0 1 -0.90589,-0.33073 z m 27.97297,0.76171 a 43.938904,43.938899 0 0 1 -0.91261,0.30283 l 1.25161,3.96048 a 48.12072,48.120715 0 0 0 1.02526,-0.26355 z m -25.35556,0.1385 -1.3069,3.95789 a 48.12072,48.120715 0 0 0 1.00511,0.32453 l 1.23403,-4.0442 a 43.938904,43.938899 0 0 1 -0.93224,-0.23822 z m 22.69215,0.57981 a 43.938904,43.938899 0 0 1 -0.93482,0.2098 l 0.9989,4.08554 a 48.12072,48.120715 0 0 0 1.02216,-0.26097 z m -20.01944,0.10283 -1.04284,4.03335 a 48.12072,48.120715 0 0 0 1.0294,0.23099 l 0.94154,-4.02766 a 43.938904,43.938899 0 0 1 -0.9281,-0.23668 z m 17.33589,0.49971 a 43.938904,43.938899 0 0 1 -0.94982,0.12144 l 0.70952,4.09691 a 48.12072,48.120715 0 0 0 1.0449,-0.15761 z m -14.63684,0.0207 -0.77721,4.14807 a 48.12072,48.120715 0 0 0 1.05058,0.12764 l 0.67076,-4.13308 a 43.938904,43.938899 0 0 1 -0.94413,-0.14263 z m 11.90987,0.31626 a 43.938904,43.938899 0 0 1 -0.94826,0.11523 l 0.42426,4.16771 a 48.12072,48.120715 0 0 0 1.05369,-0.10542 z m -9.1953,0.094 -0.47543,4.10414 a 48.12072,48.120715 0 0 0 1.0511,0.12764 l 0.38034,-4.18269 a 43.938904,43.938899 0 0 1 -0.95601,-0.0491 z m 2.74608,0.13849 -0.18345,4.19923 a 48.12072,48.120715 0 0 0 1.06402,0.0377 l 0.0765,-4.18889 a 43.938904,43.938899 0 0 1 -0.95705,-0.0481 z m 3.71347,0.01 a 43.938904,43.938899 0 0 1 -0.95756,0.0336 l 0.12196,4.15943 a 48.12072,48.120715 0 0 0 1.06246,-0.0532 z"
         style="opacity:1;vector-effect:none;fill:url(#linearGradient1502);fill-opacity:1;fill-rule:evenodd;stroke:none;stroke-width:0.47171023;stroke-linecap:butt;stroke-linejoin:miter;stroke-miterlimit:4;stroke-dasharray:none;stroke-dashoffset:0;stroke-opacity:1;paint-order:fill markers stroke" />
      <path
         id="path1520"
         transform="matrix(0.26458333,0,0,0.26458333,637.2588,280.36741)"
         d="m 183.41992,1.6445312 a 181.87359,181.87357 0 0 0 -2.91015,0.1464844 l 0.0137,0.75 a 181.87359,181.87357 0 0 1 2.89648,-0.1464844 181.87359,181.87357 0 0 1 1.11914,0.039063 l 0.006,-0.75 a 181.87359,181.87357 0 0 0 -1.125,-0.039063 z m 8.66406,0.3046876 -0.86914,15.8886722 a 166.0683,166.06828 0 0 1 0.041,0.002 l 0.82812,-15.1386721 a 181.87359,181.87357 0 0 1 3.95313,0.140625 l 0.0605,-0.75 a 181.87359,181.87357 0 0 0 -4.01368,-0.1425781 z m -19.0957,0.2148437 a 181.87359,181.87357 0 0 0 -4.00586,0.2011719 l 0.0684,0.7480468 a 181.87359,181.87357 0 0 1 3.9375,-0.1972656 l 0.97656,14.8691404 a 166.0683,166.06828 0 0 1 0.0488,-0.0039 z m 30.56055,0.8164063 -1.97071,15.5351562 a 166.0683,166.06828 0 0 1 0.0938,0.01367 l 1.87695,-14.7968751 a 181.87359,181.87357 0 0 1 3.85547,0.4667969 l 0.11132,-0.7382813 a 181.87359,181.87357 0 0 0 -3.96679,-0.4804687 z m -42.02539,0.1347656 a 181.87359,181.87357 0 0 0 -3.94922,0.5976562 l 0.11914,0.734375 a 181.87359,181.87357 0 0 1 3.83008,-0.5800781 l 2.06054,14.9765625 a 166.0683,166.06828 0 0 1 0.10157,-0.01172 z m 53.41797,1.3105468 -3.09961,15.6406248 a 166.0683,166.06828 0 0 1 0.14453,0.02148 l 2.95508,-14.9101566 a 181.87359,181.87357 0 0 1 3.73437,0.8378906 l 0.16016,-0.7167969 a 181.87359,181.87357 0 0 0 -3.89453,-0.8730469 z m -64.76368,0.4042969 a 181.87359,181.87357 0 0 0 -3.93164,0.703125 l 0.16797,0.7226563 a 181.87359,181.87357 0 0 1 3.76367,-0.6738282 l 3.07422,14.7167968 a 166.0683,166.06828 0 0 1 0.15039,-0.0332 z m 75.94922,2.1054688 -4.10937,15.2539061 a 166.0683,166.06828 0 0 1 0.18945,0.04883 L 226.12695,7.6875 a 181.87359,181.87357 0 0 1 3.69141,0.828125 l 0.20703,-0.7050781 a 181.87359,181.87357 0 0 0 -3.89844,-0.875 z m -87.12109,0.4472656 a 181.87359,181.87357 0 0 0 -3.86719,0.9863281 l 0.21289,0.6972656 a 181.87359,181.87357 0 0 1 3.6543,-0.9316406 l 4.05078,14.4550784 a 166.0683,166.06828 0 0 1 0.19727,-0.04492 z m 98.17773,2.5859375 -5.05078,14.804688 a 166.0683,166.06828 0 0 1 0.22852,0.08008 l 4.82226,-14.132813 a 181.87359,181.87357 0 0 1 3.54493,1.177735 l 0.24609,-0.669922 A 181.87359,181.87357 0 0 0 237.18359,9.96875 Z m -109.25,0.431641 a 181.87359,181.87357 0 0 0 -3.75195,1.36914 l 0.25,0.660157 a 181.87359,181.87357 0 0 1 3.50195,-1.277344 l 5.05274,14.34375 a 166.0683,166.06828 0 0 1 0.23633,-0.07813 z m 120.15625,3.191406 -6.10351,14.736328 a 166.0683,166.06828 0 0 1 0.27148,0.09961 l 5.83203,-14.083984 a 181.87359,181.87357 0 0 1 3.42383,1.402344 l 0.28125,-0.636719 a 181.87359,181.87357 0 0 0 -3.70508,-1.517579 z m -130.94531,0.748047 a 181.87359,181.87357 0 0 0 -3.76758,1.375 l 0.29102,0.646484 a 181.87359,181.87357 0 0 1 3.47656,-1.269531 l 5.85156,13.755859 a 166.0683,166.06828 0 0 1 0.26953,-0.121094 z m 141.49805,3.833984 -6.91602,14.138672 a 166.0683,166.06828 0 0 1 0.29688,0.144531 l 6.61914,-13.53125 a 181.87359,181.87357 0 0 1 3.34961,1.5 l 0.31445,-0.611328 a 181.87359,181.87357 0 0 0 -3.66406,-1.640625 z M 106.58203,18.90625 a 181.87359,181.87357 0 0 0 -3.61328,1.744141 L 103.28516,21.25 a 181.87359,181.87357 0 0 1 3.29687,-1.591797 l 6.76367,13.505859 a 166.0683,166.06828 0 0 1 0.30664,-0.138671 z m 162.43555,4.302734 -7.76953,13.705078 a 166.0683,166.06828 0 0 1 0.32617,0.175782 l 7.44336,-13.128906 a 181.87359,181.87357 0 0 1 3.15234,1.808593 l 0.33399,-0.560547 a 181.87359,181.87357 0 0 0 -3.48633,-2 z M 96.1875,23.931641 a 181.87359,181.87357 0 0 0 -3.429688,2.101562 l 0.332032,0.548828 A 181.87359,181.87357 0 0 1 96.1875,24.683594 l 7.67773,13.255859 a 166.0683,166.06828 0 0 1 0.32618,-0.1875 z m 182.85742,5.029297 -8.64648,13.330078 a 166.0683,166.06828 0 0 1 0.34961,0.214843 l 8.29687,-12.792968 a 181.87359,181.87357 0 0 1 3.08594,1.871093 l 0.36133,-0.533203 a 181.87359,181.87357 0 0 0 -3.44727,-2.089843 z M 86.332031,29.974609 a 181.87359,181.87357 0 0 0 -3.4375,2.107422 l 0.365235,0.527344 a 181.87359,181.87357 0 0 1 3.072265,-1.882813 L 94.625,43.267578 a 166.0683,166.06828 0 0 1 0.347656,-0.228516 z m 202.302739,5.46875 -9.29688,12.642579 a 166.0683,166.06828 0 0 1 0.35547,0.269531 l 8.94141,-12.160157 a 181.87359,181.87357 0 0 1 2.91015,2.082032 l 0.37305,-0.486328 a 181.87359,181.87357 0 0 0 -3.2832,-2.347657 z M 76.732422,36.447266 a 181.87359,181.87357 0 0 0 -3.212891,2.441406 l 0.369141,0.472656 a 181.87359,181.87357 0 0 1 2.84375,-2.162109 l 9.123047,12.177734 a 166.0683,166.06828 0 0 1 0.367187,-0.261719 z m 221.220698,5.902343 -10.11328,12.201172 a 166.0683,166.06828 0 0 1 0.37891,0.294922 l 9.73437,-11.744141 a 181.87359,181.87357 0 0 1 2.66797,2.34375 l 0.36914,-0.427734 a 181.87359,181.87357 0 0 0 -3.03711,-2.667969 z M 67.496094,43.46875 a 181.87359,181.87357 0 0 0 -3.060547,2.636719 l 0.376953,0.427734 a 181.87359,181.87357 0 0 1 2.683594,-2.3125 l 9.865234,11.693359 a 166.0683,166.06828 0 0 1 0.365234,-0.320312 z m 239.179686,6.542969 -10.79101,11.591797 a 166.0683,166.06828 0 0 1 0.375,0.349609 l 10.41601,-11.189453 a 181.87359,181.87357 0 0 1 2.64649,2.324219 l 0.39257,-0.40625 a 181.87359,181.87357 0 0 0 -3.03906,-2.669922 z M 58.898438,51.263672 a 181.87359,181.87357 0 0 0 -2.958985,2.755859 l 0.386719,0.392578 a 181.87359,181.87357 0 0 1 2.572266,-2.396484 L 69.308594,63.009766 A 166.0683,166.06828 0 0 1 69.6875,62.65625 Z m 256.019532,6.921875 -11.30859,10.833984 a 166.0683,166.06828 0 0 1 0.35937,0.408203 L 314.91797,58.9375 a 181.87359,181.87357 0 0 1 2.37695,2.552734 l 0.37696,-0.347656 a 181.87359,181.87357 0 0 0 -2.75391,-2.957031 z M 50.644531,59.429688 a 181.87359,181.87357 0 0 0 -2.666015,3.037109 l 0.367187,0.332031 a 181.87359,181.87357 0 0 1 2.298828,-2.617187 l 11.183594,10.527343 a 166.0683,166.06828 0 0 1 0.373047,-0.40039 z m 272.156249,7.283203 -12.12695,10.347656 a 166.0683,166.06828 0 0 1 0.37695,0.429687 l 11.75,-10.02539 a 181.87359,181.87357 0 0 1 2.0957,2.757812 l 0.35157,-0.289062 a 181.87359,181.87357 0 0 0 -2.44727,-3.220703 z m -279.816405,1.4375 a 181.87359,181.87357 0 0 0 -2.59375,3.097656 l 0.376953,0.302734 a 181.87359,181.87357 0 0 1 2.216797,-2.648437 l 11.738281,9.841797 a 166.0683,166.06828 0 0 1 0.34961,-0.458985 z m 286.837895,7.800781 -12.58985,9.544922 a 166.0683,166.06828 0 0 1 0.34961,0.488281 l 12.24024,-9.28125 a 181.87359,181.87357 0 0 1 2.07226,2.726563 l 0.36914,-0.267579 a 181.87359,181.87357 0 0 0 -2.4414,-3.210937 z M 35.990234,77.402344 a 181.87359,181.87357 0 0 0 -2.34375,3.277344 l 0.355469,0.253906 a 181.87359,181.87357 0 0 1 1.988281,-2.779297 l 12.25,9.115234 a 166.0683,166.06828 0 0 1 0.365235,-0.480469 z m 300.398436,8.089844 -12.99414,8.703124 a 166.0683,166.06828 0 0 1 0.3125,0.542969 l 12.68164,-8.49414 a 181.87359,181.87357 0 0 1 1.77344,2.894531 l 0.33203,-0.212891 a 181.87359,181.87357 0 0 0 -2.10547,-3.433593 z m -306.972654,1.4375 a 181.87359,181.87357 0 0 0 -2.00586,3.496093 L 27.726562,90.625 a 181.87359,181.87357 0 0 1 1.689454,-2.943359 l 12.980468,8.527343 a 166.0683,166.06828 0 0 1 0.328125,-0.535156 z m 313.015624,8.419921 -13.74609,8.068361 a 166.0683,166.06828 0 0 1 0.32226,0.5625 l 13.42383,-7.878908 a 181.87359,181.87357 0 0 1 1.54883,2.990235 l 0.30273,-0.169922 a 181.87359,181.87357 0 0 0 -1.85156,-3.572266 z M 23.662109,96.958984 a 181.87359,181.87357 0 0 0 -1.998047,3.486326 l 0.328126,0.17969 a 181.87359,181.87357 0 0 1 1.669921,-2.914062 l 13.310547,7.652342 a 166.0683,166.06828 0 0 1 0.285156,-0.58789 z m 323.894531,8.736326 -14.05273,7.14453 a 166.0683,166.06828 0 0 1 0.27343,0.61328 l 13.7793,-7.00585 a 181.87359,181.87357 0 0 1 1.44727,3 l 0.29492,-0.14258 a 181.87359,181.87357 0 0 0 -1.74219,-3.60938 z m -329.027343,1.58985 a 181.87359,181.87357 0 0 0 -1.636719,3.6582 l 0.277344,0.13086 a 181.87359,181.87357 0 0 1 1.359375,-3.03711 l 13.833984,6.87109 a 166.0683,166.06828 0 0 1 0.292969,-0.60547 z m 333.693363,8.92968 -14.41797,6.24024 a 166.0683,166.06828 0 0 1 0.23633,0.65039 l 14.18164,-6.13867 a 181.87359,181.87357 0 0 1 1.13476,3.10937 l 0.23828,-0.0977 a 181.87359,181.87357 0 0 0 -1.37304,-3.76368 z m -338.376957,1.58204 a 181.87359,181.87357 0 0 0 -1.263672,3.80468 l 0.220703,0.0879 a 181.87359,181.87357 0 0 1 1.042969,-3.14062 l 14.494141,6.10937 a 166.0683,166.06828 0 0 1 0.238281,-0.65234 z m 342.316407,9.21093 -14.95508,5.375 a 166.0683,166.06828 0 0 1 0.22266,0.67188 l 14.73242,-5.29492 a 181.87359,181.87357 0 0 1 1.04492,3.11328 l 0.22656,-0.0762 a 181.87359,181.87357 0 0 0 -1.27148,-3.78907 z m -345.941407,1.69727 a 181.87359,181.87357 0 0 0 -1.2597655,3.78906 l 0.2265625,0.0723 a 181.87359,181.87357 0 0 1 1.033203,-3.10938 l 14.578125,5.07617 a 166.0683,166.06828 0 0 1 0.1875,-0.68554 z m 349.064457,9.3457 -15.10938,4.33984 a 166.0683,166.06828 0 0 1 0.1582,0.70704 l 14.95118,-4.29493 a 181.87359,181.87357 0 0 1 0.80664,3.15821 l 0.17968,-0.0469 a 181.87359,181.87357 0 0 0 -0.98632,-3.86328 z M 7.0820312,139.73242 A 181.87359,181.87357 0 0 0 6.2089844,143.625 l 0.1601562,0.041 a 181.87359,181.87357 0 0 1 0.7128906,-3.18164 l 15.0800778,4.16796 a 166.0683,166.06828 0 0 1 0.179688,-0.70312 z m 354.8593788,9.46485 -15.48633,3.34375 a 166.0683,166.06828 0 0 1 0.14453,0.7207 l 15.3418,-3.3125 a 181.87359,181.87357 0 0 1 0.48632,3.2207 l 0.11133,-0.0215 a 181.87359,181.87357 0 0 0 -0.59765,-3.95117 z M 4.5722656,150.91406 a 181.87359,181.87357 0 0 0 -0.6523437,3.94141 l 0.1210937,0.0215 a 181.87359,181.87357 0 0 1 0.53125,-3.21093 l 15.4375004,3.16601 a 166.0683,166.06828 0 0 1 0.111328,-0.72851 z m 359.0839844,9.62891 -15.67187,2.26562 a 166.0683,166.06828 0 0 1 0.0898,0.73829 l 15.58203,-2.25196 a 181.87359,181.87357 0 0 1 0.48633,3.21875 l 0.11133,-0.0137 a 181.87359,181.87357 0 0 0 -0.59766,-3.95703 z M 3.0175781,162.28516 a 181.87359,181.87357 0 0 0 -0.4824219,3.96875 l 0.089844,0.01 a 181.87359,181.87357 0 0 1 0.3925781,-3.22656 l 15.4628907,2.06836 a 166.0683,166.06828 0 0 1 0.08984,-0.74024 z m 361.6992219,9.70703 -15.59571,1.13672 a 166.0683,166.06828 0 0 1 0.0254,0.75 l 15.57032,-1.13477 a 181.87359,181.87357 0 0 1 0.16406,3.25977 l 0.0371,-0.002 a 181.87359,181.87357 0 0 0 -0.20117,-4.00976 z M 1.8925781,173.73438 A 181.87359,181.87357 0 0 0 1.75,177.75195 h 0.027344 a 181.87359,181.87357 0 0 1 0.1152343,-3.26562 l 15.8632807,0.98047 a 166.0683,166.06828 0 0 1 0.03711,-0.75 z m 347.5937519,9.80468 a 166.0683,166.06828 0 0 1 -0.18164,3.62891 h 0.0371 a 166.0683,166.06828 0 0 0 0.14453,-2.87695 h 15.77929 a 181.87359,181.87357 0 0 0 0.0274,-0.75196 z m -332.078127,1.58789 -15.7714842,0.17383 a 181.87359,181.87357 0 0 0 0.037109,0.75195 l 15.7343752,-0.17382 a 166.0683,166.06828 0 0 0 0.101563,2.87304 l 0.02734,-0.002 A 166.0683,166.06828 0 0 1 17.4082,185.1269 Z m 331.558597,8.8125 a 166.0683,166.06828 0 0 1 -0.18164,3.61328 l 0.0371,0.004 a 166.0683,166.06828 0 0 0 0.14453,-2.86523 l 15.8457,1.15429 a 181.87359,181.87357 0 0 0 0.0703,-0.74609 z M 17.798828,195.52734 2.2128906,196.83203 A 181.87359,181.87357 0 0 0 2.25,197.58008 l 15.548828,-1.30078 a 166.0683,166.06828 0 0 0 0.345703,2.84765 l 0.08984,-0.01 a 166.0683,166.06828 0 0 1 -0.435547,-3.58985 z m 330.226562,8.75 a 166.0683,166.06828 0 0 1 -0.53906,3.56836 l 0.11133,0.0195 a 166.0683,166.06828 0 0 0 0.42773,-2.83593 l 15.49023,2.23828 a 181.87359,181.87357 0 0 0 0.0899,-0.73828 z m -328.974609,1.55274 -15.6015622,2.42383 a 181.87359,181.87357 0 0 0 0.1113281,0.73437 l 15.4902341,-2.40625 a 166.0683,166.06828 0 0 0 0.345703,2.85156 l 0.08984,-0.0156 a 166.0683,166.06828 0 0 1 -0.435547,-3.58789 z m 327.423829,8.71289 a 166.0683,166.06828 0 0 1 -0.70313,3.55273 l 0.14258,0.0332 a 166.0683,166.06828 0 0 0 0.56055,-2.83399 l 15.24023,3.28906 a 181.87359,181.87357 0 0 0 0.16016,-0.71679 z m -325.734376,1.5293 -15.5761715,3.52929 A 181.87359,181.87357 0 0 0 5.34375,220.3125 l 15.396484,-3.48828 a 166.0683,166.06828 0 0 0 0.63086,2.8164 l 0.160156,-0.041 a 166.0683,166.06828 0 0 1 -0.791016,-3.52734 z m 323.353516,8.59375 a 166.0683,166.06828 0 0 1 -0.89844,3.51757 l 0.17774,0.0547 a 166.0683,166.06828 0 0 0 0.7207,-2.82031 l 15.09961,4.33789 a 181.87359,181.87357 0 0 0 0.17187,-0.70313 z m -321.074219,1.5625 -15.0234372,4.48046 a 181.87359,181.87357 0 0 0 0.1777343,0.69922 l 14.8457029,-4.42773 a 166.0683,166.06828 0 0 0 0.785157,2.80859 l 0.193359,-0.0625 a 166.0683,166.06828 0 0 1 -0.978516,-3.49804 z m 318.271489,8.5 a 166.0683,166.06828 0 0 1 -1.25,3.42187 l 0.24023,0.0918 a 166.0683,166.06828 0 0 0 1.00977,-2.76172 l 14.53906,5.22265 a 181.87359,181.87357 0 0 0 0.22265,-0.67187 z m -315.144536,1.46484 -14.859375,5.50195 a 181.87359,181.87357 0 0 0 0.242188,0.66211 l 14.617187,-5.41211 a 166.0683,166.06828 0 0 0 0.929688,2.79688 l 0.220703,-0.0879 a 166.0683,166.06828 0 0 1 -1.150391,-3.46094 z m 311.548826,8.38476 a 166.0683,166.06828 0 0 1 -1.25781,3.44727 l 0.23438,0.10742 a 166.0683,166.06828 0 0 0 1.02343,-2.80273 l 14.29883,6.1875 a 181.87359,181.87357 0 0 0 0.28125,-0.63086 z m -307.994138,1.48829 -14.470703,6.42578 a 181.87359,181.87357 0 0 0 0.267578,0.63281 l 14.203125,-6.30664 a 166.0683,166.06828 0 0 0 1.21875,2.7207 l 0.277344,-0.13086 a 166.0683,166.06828 0 0 1 -1.496094,-3.34179 z m 303.761718,8.15429 a 166.0683,166.06828 0 0 1 -1.59961,3.3125 l 0.28906,0.1543 a 166.0683,166.06828 0 0 0 1.31055,-2.71484 l 13.83594,7.03515 a 181.87359,181.87357 0 0 0 0.27344,-0.61328 z m -299.457031,1.4668 -13.947265,7.25391 a 181.87359,181.87357 0 0 0 0.291015,0.60156 l 13.65625,-7.10352 a 166.0683,166.06828 0 0 0 1.253907,2.75586 l 0.273437,-0.15039 a 166.0683,166.06828 0 0 1 -1.527344,-3.35742 z m 294.789061,8.03906 a 166.0683,166.06828 0 0 1 -1.93164,3.14844 l 0.33399,0.20703 a 166.0683,166.06828 0 0 0 1.59765,-2.60351 l 13.16016,7.7246 a 181.87359,181.87357 0 0 0 0.32226,-0.5625 z m -289.824217,1.3086 -13.630859,8.16796 a 181.87359,181.87357 0 0 0 0.33789,0.54883 l 13.292969,-7.96484 a 166.0683,166.06828 0 0 0 1.521485,2.65234 l 0.316406,-0.19922 a 166.0683,166.06828 0 0 1 -1.837891,-3.20507 z m 284.271487,7.74804 a 166.0683,166.06828 0 0 1 -1.93946,3.16407 l 0.32227,0.22656 a 166.0683,166.06828 0 0 0 1.61719,-2.63867 l 12.91797,8.65039 a 181.87359,181.87357 0 0 0 0.36132,-0.50977 z m -278.878909,1.41797 -12.978515,8.85938 a 181.87359,181.87357 0 0 0 0.330078,0.52734 l 12.648437,-8.63477 a 166.0683,166.06828 0 0 0 1.800781,2.51758 l 0.355469,-0.2539 a 166.0683,166.06828 0 0 1 -2.15625,-3.01563 z m 272.857419,7.37305 a 166.0683,166.06828 0 0 1 -2.24804,2.95898 l 0.35742,0.28125 a 166.0683,166.06828 0 0 0 1.89062,-2.48828 l 12.22266,9.26758 a 181.87359,181.87357 0 0 0 0.34961,-0.48828 z M 50.564453,282.87305 38.095703,292.5 a 181.87359,181.87357 0 0 0 0.361328,0.47461 L 50.564453,283.625 a 166.0683,166.06828 0 0 0 1.824219,2.55078 l 0.341797,-0.27539 a 166.0683,166.06828 0 0 1 -2.166016,-3.02734 z M 310.75,290.08594 a 166.0683,166.06828 0 0 1 -2.5,2.75976 l 0.37695,0.33594 a 166.0683,166.06828 0 0 0 2.12305,-2.34375 l 11.5293,9.83594 a 181.87359,181.87357 0 0 0 0.37695,-0.42969 z M 57.251953,291.20703 45.222656,301.6543 a 181.87359,181.87357 0 0 0 0.386719,0.41601 l 11.642578,-10.11133 a 166.0683,166.06828 0 0 0 2.089844,2.37696 l 0.367187,-0.33203 a 166.0683,166.06828 0 0 1 -2.457031,-2.79688 z m 246.242187,6.74414 a 166.0683,166.06828 0 0 1 -2.53906,2.72656 l 0.36328,0.36133 a 166.0683,166.06828 0 0 0 2.17578,-2.33594 l 11.11914,10.65235 a 181.87359,181.87357 0 0 0 0.38086,-0.38672 z m -239.173828,1.29492 -11.185546,10.90235 a 181.87359,181.87357 0 0 0 0.367187,0.39453 l 10.818359,-10.54492 a 166.0683,166.06828 0 0 0 2.341797,2.18359 l 0.386719,-0.39258 a 166.0683,166.06828 0 0 1 -2.728516,-2.54297 z m 231.570308,6.23829 a 166.0683,166.06828 0 0 1 -2.79687,2.45703 l 0.37695,0.42187 a 166.0683,166.06828 0 0 0 2.41992,-2.12695 l 10.34766,11.11719 a 181.87359,181.87357 0 0 0 0.375,-0.34961 z M 72.15625,306.54492 61.5,318.19336 a 181.87359,181.87357 0 0 0 0.380859,0.33594 L 72.15625,307.29688 a 166.0683,166.06828 0 0 0 2.361328,2.20117 l 0.363281,-0.41407 a 166.0683,166.06828 0 0 1 -2.724609,-2.53906 z m 215.69727,6 a 166.0683,166.06828 0 0 1 -2.92969,2.29102 l 0.36914,0.46289 a 166.0683,166.06828 0 0 0 2.56055,-2.00195 l 9.6621,11.65624 a 181.87359,181.87357 0 0 0 0.38282,-0.29101 z M 80.300781,313.4707 70.220703,325.85352 a 181.87359,181.87357 0 0 0 0.384766,0.27929 l 9.695312,-11.91015 a 166.0683,166.06828 0 0 0 2.589844,1.9707 l 0.369141,-0.47266 a 166.0683,166.06828 0 0 1 -2.958985,-2.25 z m 198.957029,5.41602 a 166.0683,166.06828 0 0 1 -3.01562,2.1582 l 0.35156,0.5 a 166.0683,166.06828 0 0 0 2.66406,-1.90625 l 9.04883,12.30274 a 181.87359,181.87357 0 0 0 0.35938,-0.26172 z m -190.458982,1.04492 -9.15625,12.68359 A 181.87359,181.87357 0 0 0 80,332.87109 l 8.798828,-12.1875 a 166.0683,166.06828 0 0 0 2.75,1.79493 l 0.357422,-0.51758 a 166.0683,166.06828 0 0 1 -3.107422,-2.0293 z m 181.619142,4.89063 a 166.0683,166.06828 0 0 1 -3.20899,1.84179 l 0.34375,0.55469 a 166.0683,166.06828 0 0 0 2.86524,-1.64453 l 8.20117,12.64258 a 181.87359,181.87357 0 0 0 0.34961,-0.21485 z m -172.595704,0.76562 -8.496094,13.36133 a 181.87359,181.87357 0 0 0 0.349609,0.20117 l 8.146485,-12.81055 a 166.0683,166.06828 0 0 0 2.818354,1.72852 l 0.33204,-0.54883 a 166.0683,166.06828 0 0 1 -3.150394,-1.93164 z m 163.388674,4.51563 a 166.0683,166.06828 0 0 1 -3.23633,1.75976 l 0.31445,0.58203 a 166.0683,166.06828 0 0 0 2.92188,-1.58984 l 7.48437,13.19531 a 181.87359,181.87357 0 0 0 0.33399,-0.16211 z m -154.16602,0.71679 -7.70117,13.875 a 181.87359,181.87357 0 0 0 0.326172,0.16407 l 7.374998,-13.28711 a 166.0683,166.06828 0 0 0 2.99805,1.44921 l 0.31641,-0.5996 a 166.0683,166.06828 0 0 1 -3.31446,-1.60157 z m 144.63867,3.85742 a 166.0683,166.06828 0 0 1 -3.34765,1.49805 l 0.28906,0.62305 a 166.0683,166.06828 0 0 0 3.05859,-1.36914 l 6.66211,13.62109 a 181.87359,181.87357 0 0 0 0.29688,-0.14453 z m -135.1289,0.73633 -6.76172,14.15821 a 181.87359,181.87357 0 0 0 0.29687,0.13281 l 6.46485,-13.53906 a 166.0683,166.06828 0 0 0 3.06836,1.35742 l 0.2832,-0.62696 a 166.0683,166.06828 0 0 1 -3.35156,-1.48242 z m 125.46093,3.40821 a 166.0683,166.06828 0 0 1 -3.46874,1.15234 l 0.25781,0.66601 a 166.0683,166.06828 0 0 0 3.21093,-1.0664 l 5.72852,13.83008 a 181.87359,181.87357 0 0 0 0.27148,-0.0996 z m -115.66796,0.42578 -5.94141,14.74023 a 181.87359,181.87357 0 0 0 0.26758,0.0879 L 126.34766,340 a 166.0683,166.06828 0 0 0 3.17382,1.1582 l 0.25,-0.66015 a 166.0683,166.06828 0 0 1 -3.42382,-1.25 z m 105.72461,2.8789 a 166.0683,166.06828 0 0 1 -3.44922,1.14453 l 0.21484,0.67969 a 166.0683,166.06828 0 0 0 3.23438,-1.07226 l 4.91992,14.42578 a 181.87359,181.87357 0 0 0 0.23633,-0.0605 z m -95.83204,0.52344 -4.93945,14.95899 a 181.87359,181.87357 0 0 0 0.22461,0.0723 l 4.71484,-14.2793 a 166.0683,166.06828 0 0 0 3.31055,0.84571 l 0.21289,-0.69727 a 166.0683,166.06828 0 0 1 -3.52344,-0.90039 z m 85.76563,2.19141 a 166.0683,166.06828 0 0 1 -3.5332,0.79297 l 0.17382,0.71289 a 166.0683,166.06828 0 0 0 3.35938,-0.75391 l 3.91602,14.54492 a 181.87359,181.87357 0 0 0 0.18945,-0.0488 z m -75.66406,0.38867 -3.94141,15.24414 a 181.87359,181.87357 0 0 0 0.18359,0.041 l 3.75782,-14.5332 a 166.0683,166.06828 0 0 0 3.34179,0.85156 l 0.16602,-0.70898 a 166.0683,166.06828 0 0 1 -3.50781,-0.89453 z m 65.52148,1.88867 a 166.0683,166.06828 0 0 1 -3.58984,0.45898 l 0.12695,0.73633 a 166.0683,166.06828 0 0 0 3.46289,-0.44336 l 2.89649,14.61719 a 181.87359,181.87357 0 0 0 0.14453,-0.0215 z m -55.32031,0.0781 -2.9375,15.67773 a 181.87359,181.87357 0 0 0 0.13867,0.0176 l 2.79883,-14.94336 a 166.0683,166.06828 0 0 0 3.44922,0.52148 l 0.11914,-0.73437 a 166.0683,166.06828 0 0 1 -3.56836,-0.53906 z m 45.01367,1.19531 a 166.0683,166.06828 0 0 1 -3.58398,0.43554 l 0.0762,0.74219 a 166.0683,166.06828 0 0 0 3.50781,-0.42578 l 1.9082,15.04688 a 181.87359,181.87357 0 0 0 0.0937,-0.01 z m -34.75391,0.35547 -1.79687,15.51172 a 181.87359,181.87357 0 0 0 0.0859,0.01 L 166.80273,349.5 a 166.0683,166.06828 0 0 0 3.54493,0.18164 l 0.0684,-0.74805 a 166.0683,166.06828 0 0 1 -3.61329,-0.18554 z m 10.37891,0.52343 -0.69336,15.8711 a 181.87359,181.87357 0 0 0 0.0332,0.002 l 0.66016,-15.12109 a 166.0683,166.06828 0 0 0 3.60352,0.18164 l 0.0137,-0.75196 a 166.0683,166.06828 0 0 1 -3.61719,-0.18164 z m 14.03516,0.0391 a 166.0683,166.06828 0 0 1 -3.61914,0.12695 l 0.0215,0.75 a 166.0683,166.06828 0 0 0 3.59766,-0.12695 l 0.8164,14.89843 a 181.87359,181.87357 0 0 0 0.041,-0.002 z"
         style="opacity:1;vector-effect:none;fill:#000000;fill-opacity:1;fill-rule:evenodd;stroke:none;stroke-width:1.7828418;stroke-linecap:butt;stroke-linejoin:miter;stroke-miterlimit:4;stroke-dasharray:none;stroke-dashoffset:0;stroke-opacity:1;paint-order:fill markers stroke" />
      <path
         id="path1524"
         transform="matrix(0.26458333,0,0,0.26458333,637.2588,280.36741)"
         d="M 184.54297,1.8378906 184.43164,17.5 a 166.0683,166.06828 0 0 0 -1.01172,-0.05078 166.0683,166.06828 0 0 0 -2.62109,0.09375 L 180.51172,1.9453125 a 181.87359,181.87357 0 0 0 -0.002,0 l 0.28906,15.7519535 a 166.0683,166.06828 0 0 1 2.62109,-0.09375 166.0683,166.06828 0 0 1 1.01172,0.05078 l 0.11328,-15.8164064 a 181.87359,181.87357 0 0 0 -0.002,0 z m 11.54297,0.4101563 -1.25977,15.7695311 a 166.0683,166.06828 0 0 0 -3.60351,-0.179687 l -0.008,0.15625 a 166.0683,166.06828 0 0 1 3.61133,0.179687 l 1.27149,-15.9257811 a 181.87359,181.87357 0 0 0 -0.0117,0 z m -27.10352,0.2734375 1.42188,15.6523436 a 166.0683,166.06828 0 0 1 3.60937,-0.236328 l -0.01,-0.15625 a 166.0683,166.06828 0 0 0 -3.59961,0.236328 L 168.99609,2.5214844 a 181.87359,181.87357 0 0 0 -0.0137,0 z m 38.50977,1.09375 -2.33985,15.4414066 a 166.0683,166.06828 0 0 0 -3.55468,-0.53711 l -0.0195,0.152344 a 166.0683,166.06828 0 0 1 3.57422,0.541016 l 2.36328,-15.5957035 a 181.87359,181.87357 0 0 0 -0.0234,-0.00195 z m -49.89258,0.2480468 a 181.87359,181.87357 0 0 0 -0.0254,0.00391 l 2.52734,15.5546878 a 166.0683,166.06828 0 0 1 3.58399,-0.435547 l -0.0215,-0.152344 a 166.0683,166.06828 0 0 0 -3.5625,0.433594 z m 61.20312,1.5820313 -3.3789,15.1640625 a 166.0683,166.06828 0 0 0 -3.55274,-0.539063 l -0.0293,0.150391 a 166.0683,166.06828 0 0 1 3.58203,0.542969 l 3.41211,-15.310547 a 181.87359,181.87357 0 0 0 -0.0332,-0.00781 z m -72.52148,0.2363281 a 181.87359,181.87357 0 0 0 -0.0352,0.00586 l 3.62696,15.5253914 a 166.0683,166.06828 0 0 1 3.52929,-0.792969 l -0.0312,-0.146484 a 166.0683,166.06828 0 0 0 -3.49804,0.785156 z m 83.70117,2.2734375 -4.45117,15.1308599 a 166.0683,166.06828 0 0 0 -3.47461,-0.886719 l -0.0391,0.144531 a 166.0683,166.06828 0 0 1 3.51367,0.896484 l 4.49414,-15.2753902 a 181.87359,181.87357 0 0 0 -0.043,-0.00977 z m -94.80078,0.5566407 a 181.87359,181.87357 0 0 0 -0.043,0.011719 l 4.56641,14.9707032 a 166.0683,166.06828 0 0 1 3.54883,-0.794922 l -0.041,-0.144531 a 166.0683,166.06828 0 0 0 -3.50781,0.785156 z m 105.74219,2.8535152 -5.35547,14.621094 a 166.0683,166.06828 0 0 0 -3.38867,-1.197266 l -0.0469,0.138672 a 166.0683,166.06828 0 0 1 3.43555,1.212891 l 5.40625,-14.757813 a 181.87359,181.87357 0 0 0 -0.0508,-0.01758 z m -116.69141,0.539063 a 181.87359,181.87357 0 0 0 -0.0508,0.01953 l 5.58594,14.796875 a 166.0683,166.06828 0 0 1 3.45508,-1.148437 l -0.0488,-0.138672 a 166.0683,166.06828 0 0 0 -3.40625,1.132812 z m 127.50586,3.335937 -6.3125,14.34375 a 166.0683,166.06828 0 0 0 -3.38476,-1.236328 l -0.0547,0.134766 a 166.0683,166.06828 0 0 1 3.43945,1.255859 l 6.36914,-14.474609 a 181.87359,181.87357 0 0 0 -0.0566,-0.02344 z M 113.4375,15.847656 a 181.87359,181.87357 0 0 0 -0.0606,0.02149 L 119.92383,30.375 a 166.0683,166.06828 0 0 1 3.34179,-1.494141 l -0.0547,-0.128906 a 166.0683,166.06828 0 0 0 -3.28711,1.46875 z m 148.80469,4.091797 -7.20899,13.970703 a 166.0683,166.06828 0 0 0 -3.24609,-1.568359 l -0.0606,0.125 a 166.0683,166.06828 0 0 1 3.30664,1.597656 l 7.27344,-14.095703 a 181.87359,181.87357 0 0 0 -0.0645,-0.0293 z M 103.0332,20.773438 a 181.87359,181.87357 0 0 0 -0.0644,0.03125 l 7.32422,13.878906 a 166.0683,166.06828 0 0 1 3.35937,-1.503906 l -0.0625,-0.126954 a 166.0683,166.06828 0 0 0 -3.29687,1.476563 z m 169.40235,4.550781 -7.94141,13.347656 a 166.0683,166.06828 0 0 0 -3.17969,-1.720703 l -0.0664,0.117187 a 166.0683,166.06828 0 0 1 3.24609,1.757813 l 8.00977,-13.462891 a 181.87359,181.87357 0 0 0 -0.0684,-0.03906 z M 92.826172,26.146484 a 181.87359,181.87357 0 0 0 -0.06836,0.04102 l 8.232418,13.554688 a 166.0683,166.06828 0 0 1 3.20118,-1.835938 l -0.0664,-0.115234 a 166.0683,166.06828 0 0 0 -3.13477,1.796875 z m 189.591798,5.013672 -8.86133,13.066406 a 166.0683,166.06828 0 0 0 -3.08594,-1.892578 l -0.0723,0.111328 a 166.0683,166.06828 0 0 1 3.1582,1.935547 l 8.93555,-13.175781 a 181.87359,181.87357 0 0 0 -0.0742,-0.04492 z M 82.96875,32.189453 a 181.87359,181.87357 0 0 0 -0.07422,0.04687 L 91.875,45.228516 a 166.0683,166.06828 0 0 1 3.097656,-2.035157 l -0.07031,-0.107421 A 166.0683,166.06828 0 0 0 91.875,45.074219 Z m 208.87305,5.701172 -9.54688,12.443359 a 166.0683,166.06828 0 0 0 -2.88476,-2.193359 l -0.0723,0.09961 a 166.0683,166.06828 0 0 1 2.95703,2.248047 l 9.62305,-12.542969 a 181.87359,181.87357 0 0 0 -0.0762,-0.05469 z M 73.595703,38.986328 a 181.87359,181.87357 0 0 0 -0.07617,0.05664 l 9.677735,12.388672 a 166.0683,166.06828 0 0 1 3.02539,-2.16211 l -0.07617,-0.09961 a 166.0683,166.06828 0 0 0 -2.949218,2.107422 z m 227.318357,6.119141 -10.13672,11.742187 a 166.0683,166.06828 0 0 0 -2.85937,-2.236328 l -0.0781,0.09375 a 166.0683,166.06828 0 0 1 2.9375,2.296875 l 10.21289,-11.830078 a 181.87359,181.87357 0 0 0 -0.0762,-0.06641 z m -236.400388,1.08789 a 181.87359,181.87357 0 0 0 -0.07813,0.06641 l 10.494141,11.945312 a 166.0683,166.06828 0 0 1 2.796874,-2.457031 l -0.07422,-0.08789 a 166.0683,166.06828 0 0 0 -2.722656,2.390625 z m 245.121098,6.572266 -11.02344,11.378906 a 166.0683,166.06828 0 0 0 -2.65039,-2.46875 l -0.0762,0.08203 a 166.0683,166.06828 0 0 1 2.72656,2.541016 l 11.10351,-11.46289 a 181.87359,181.87357 0 0 0 -0.0801,-0.07031 z M 56.019531,54.099609 a 181.87359,181.87357 0 0 0 -0.08008,0.07422 L 66.960938,65.353516 A 166.0683,166.06828 0 0 1 69.6875,62.810547 l -0.07813,-0.08203 a 166.0683,166.06828 0 0 0 -2.648437,2.470703 z m 261.574219,7.113282 -11.52344,10.607421 a 166.0683,166.06828 0 0 0 -2.38672,-2.716796 l -0.0742,0.07031 a 166.0683,166.06828 0 0 1 2.46093,2.800781 l 11.60157,-10.677734 a 181.87359,181.87357 0 0 0 -0.0781,-0.08398 z M 48.054688,62.535156 a 181.87359,181.87357 0 0 0 -0.07617,0.08594 L 59.662109,73.1875 a 166.0683,166.06828 0 0 1 2.539063,-2.724609 L 62.125,70.390625 a 166.0683,166.06828 0 0 0 -2.462891,2.642578 z m 277.121092,7.457032 -12.04297,9.867187 a 166.0683,166.06828 0 0 0 -2.38086,-2.710937 l -0.0781,0.06641 a 166.0683,166.06828 0 0 1 2.45898,2.798828 l 12.11524,-9.925781 a 181.87359,181.87357 0 0 0 -0.0723,-0.0957 z M 40.46875,71.310547 a 181.87359,181.87357 0 0 0 -0.07813,0.0918 l 12.427734,10 a 166.0683,166.06828 0 0 1 2.253907,-2.962891 L 55,78.378906 a 166.0683,166.06828 0 0 0 -2.181641,2.869141 z m 291.71875,7.90625 -12.79492,9.298828 a 166.0683,166.06828 0 0 0 -2.08789,-2.919922 l -0.0723,0.05469 a 166.0683,166.06828 0 0 1 2.16016,3.019531 l 12.87109,-9.353516 a 181.87359,181.87357 0 0 0 -0.0762,-0.09961 z M 33.71875,80.732422 a 181.87359,181.87357 0 0 0 -0.07227,0.101562 l 12.710938,9.066407 a 166.0683,166.06828 0 0 1 2.248047,-2.957032 l -0.07422,-0.05664 a 166.0683,166.06828 0 0 0 -2.173828,2.859375 z m 304.70703,8.236328 -13.18555,8.445312 a 166.0683,166.06828 0 0 0 -1.78125,-3.107421 l -0.0645,0.04297 a 166.0683,166.06828 0 0 1 1.8457,3.21875 l 13.25391,-8.488281 a 181.87359,181.87357 0 0 0 -0.0684,-0.111328 z M 27.474609,90.466797 a 181.87359,181.87357 0 0 0 -0.06445,0.113281 l 13.378906,8.402344 a 166.0683,166.06828 0 0 1 1.935547,-3.154297 l -0.06836,-0.04492 a 166.0683,166.06828 0 0 0 -1.867188,3.044922 z m 316.746091,8.490234 -13.69922,7.660159 a 166.0683,166.06828 0 0 0 -1.76953,-3.08399 l -0.0664,0.0391 a 166.0683,166.06828 0 0 1 1.83593,3.19921 l 13.76172,-7.695308 a 181.87359,181.87357 0 0 0 -0.0625,-0.119141 z M 21.730469,100.48242 a 181.87359,181.87357 0 0 0 -0.06641,0.11719 l 13.988282,7.6543 a 166.0683,166.06828 0 0 1 1.605468,-3.32422 l -0.05859,-0.0332 a 166.0683,166.06828 0 0 0 -1.546875,3.20313 z m 327.507811,8.85156 -14.23633,6.85743 a 166.0683,166.06828 0 0 0 -1.4414,-3.22657 l -0.0566,0.0293 a 166.0683,166.06828 0 0 1 1.49804,3.35156 l 14.29688,-6.88672 a 181.87359,181.87357 0 0 0 -0.0606,-0.125 z M 16.949219,110.9707 a 181.87359,181.87357 0 0 0 -0.05664,0.12696 l 14.167969,6.66211 a 166.0683,166.06828 0 0 1 1.595703,-3.30274 l -0.06055,-0.0293 a 166.0683,166.06828 0 0 0 -1.535156,3.17774 z m 336.597661,9.02735 -14.4961,5.89843 a 166.0683,166.06828 0 0 0 -1.19726,-3.30859 l -0.0488,0.0215 a 166.0683,166.06828 0 0 1 1.24609,3.4414 l 14.54492,-5.91797 a 181.87359,181.87357 0 0 0 -0.0488,-0.13476 z m -340.919927,1.62109 a 181.87359,181.87357 0 0 0 -0.04492,0.13672 l 14.744141,5.83594 a 166.0683,166.06828 0 0 1 1.251953,-3.43164 l -0.04883,-0.0215 a 166.0683,166.06828 0 0 0 -1.203125,3.29883 z m 344.759767,9.19336 -15.0332,5.02148 a 166.0683,166.06828 0 0 0 -1.10157,-3.3125 l -0.0449,0.0156 a 166.0683,166.06828 0 0 1 1.14649,3.45117 l 15.08007,-5.03711 a 181.87359,181.87357 0 0 0 -0.0469,-0.13867 z M 9.0078125,132.50977 a 181.87359,181.87357 0 0 0 -0.046875,0.13867 l 15.0625005,4.86523 a 166.0683,166.06828 0 0 1 0.96289,-3.51172 l -0.03906,-0.0137 a 166.0683,166.06828 0 0 0 -0.923828,3.3711 z m 351.2265675,9.41406 -15.26368,4.0039 a 166.0683,166.06828 0 0 0 -0.76172,-3.39257 l -0.0332,0.01 a 166.0683,166.06828 0 0 1 0.79492,3.53711 l 15.30078,-4.01367 a 181.87359,181.87357 0 0 0 -0.0371,-0.14453 z M 6.2421875,143.63281 a 181.87359,181.87357 0 0 0 -0.033203,0.14649 l 15.2363275,3.83203 a 166.0683,166.06828 0 0 1 0.896485,-3.50781 l -0.03711,-0.01 a 166.0683,166.06828 0 0 0 -0.859376,3.36328 z m 340.2421925,9.05664 -0.0293,0.006 a 166.0683,166.06828 0 0 1 0.71484,3.54492 l 15.36914,-2.9375 a 181.87359,181.87357 0 0 0 -0.0234,-0.15039 l -15.3457,2.9336 a 166.0683,166.06828 0 0 0 -0.68554,-3.39649 z m -326.386724,1.56446 a 166.0683,166.06828 0 0 0 -0.517578,3.42382 L 3.9453125,154.85938 a 181.87359,181.87357 0 0 0 -0.025391,0.15039 l 15.6601565,2.82226 a 166.0683,166.06828 0 0 1 0.541016,-3.57422 z m 327.904294,8.70703 -0.0176,0.002 a 166.0683,166.06828 0 0 1 0.43554,3.58594 l 15.83399,-1.89453 a 181.87359,181.87357 0 0 0 -0.0234,-0.15235 l -15.81055,1.89258 a 166.0683,166.06828 0 0 0 -0.41797,-3.43359 z m -329.451169,1.55664 a 166.0683,166.06828 0 0 0 -0.419922,3.43359 L 2.5527344,166.25586 a 181.87359,181.87357 0 0 0 -0.017578,0.15234 l 15.5957026,1.69727 a 166.0683,166.06828 0 0 1 0.439453,-3.58594 z m 330.570309,8.76562 a 166.0683,166.06828 0 0 1 0.12696,3.61914 l 15.66992,-0.74609 a 181.87359,181.87357 0 0 0 -0.008,-0.1543 l -15.66211,0.7461 a 166.0683,166.06828 0 0 0 -0.1211,-3.46485 z m -331.335934,1.58789 a 166.0683,166.06828 0 0 0 -0.173828,3.46094 L 1.7558594,177.75195 A 181.87359,181.87357 0 0 0 1.75,177.90625 l 15.861328,0.58008 a 166.0683,166.06828 0 0 1 0.181641,-3.61524 z m 347.501954,8.82227 a 181.87359,181.87357 0 0 1 -0.13672,3.87891 l -15.83789,-0.4043 a 166.0683,166.06828 0 0 1 -0.008,0.1543 l 15.8457,0.40429 a 181.87359,181.87357 0 0 0 0.14258,-4.0332 z M 1.6367188,185.45508 a 181.87359,181.87357 0 0 0 0.2011718,4.02539 L 17.537109,188.90625 A 166.0683,166.06828 0 0 1 17.53125,188.75 l -15.6933594,0.57422 a 181.87359,181.87357 0 0 1 -0.1933594,-3.86914 z m 363.2324212,9.79687 a 181.87359,181.87357 0 0 1 -0.36133,3.83985 l -15.71484,-1.53907 a 166.0683,166.06828 0 0 1 -0.008,0.1543 l 15.72265,1.53906 a 181.87359,181.87357 0 0 0 0.375,-3.99218 z M 2.2128906,196.98633 a 181.87359,181.87357 0 0 0 0.2011719,4.00586 l 15.8203125,-1.72071 a 166.0683,166.06828 0 0 1 -0.01758,-0.15234 l -15.8027345,1.71875 a 181.87359,181.87357 0 0 1 -0.1933594,-3.85156 z m 361.3749994,9.69531 a 181.87359,181.87357 0 0 1 -0.46484,3.81445 l -15.61328,-2.64648 A 166.0683,166.06828 0 0 1 347.48633,208 l 15.63672,2.65039 a 181.87359,181.87357 0 0 0 0.48242,-3.9668 z m -360.1152338,1.72266 -0.023437,0.004 a 181.87359,181.87357 0 0 0 0.5976562,3.94727 l 15.4394526,-2.7832 a 166.0683,166.06828 0 0 1 -0.01758,-0.15039 L 4.046875,212.20117 A 181.87359,181.87357 0 0 1 3.4726562,208.4043 Z M 361.8418,218.01367 a 181.87359,181.87357 0 0 1 -0.83985,3.7461 l -15.20117,-3.65625 a 166.0683,166.06828 0 0 1 -0.0293,0.14648 l 15.23047,3.66406 a 181.87359,181.87357 0 0 0 0.87305,-3.89258 z m -340.343753,1.59375 -15.3515626,3.86133 a 181.87359,181.87357 0 0 1 -0.9453125,-3.7207 l -0.037109,0.008 a 181.87359,181.87357 0 0 0 0.9824219,3.86719 L 21.53125,219.75391 a 166.0683,166.06828 0 0 1 -0.0332,-0.14649 z m 321.734373,8.58789 a 166.0683,166.06828 0 0 1 -0.0371,0.14258 l 15.21485,4.75 a 181.87359,181.87357 0 0 0 0.95507,-3.88086 l -0.0351,-0.01 a 181.87359,181.87357 0 0 1 -0.91992,3.73632 z m -319.273436,1.54492 -14.974609,4.83789 a 181.87359,181.87357 0 0 1 -0.9511719,-3.72656 l -0.037109,0.0117 a 181.87359,181.87357 0 0 0 0.9882812,3.86914 l 15.0136717,-4.85156 a 166.0683,166.06828 0 0 1 -0.03906,-0.14063 z m 316.130856,8.42969 a 166.0683,166.06828 0 0 1 -0.0488,0.13477 l 14.75195,5.67383 a 181.87359,181.87357 0 0 0 1.25976,-3.79297 l -0.0449,-0.0156 a 181.87359,181.87357 0 0 1 -1.21484,3.6543 z m -312.837887,1.50196 -14.59375,5.77539 a 181.87359,181.87357 0 0 1 -1.322265,-3.61524 l -0.04883,0.0176 a 181.87359,181.87357 0 0 0 1.371094,3.75195 l 14.638672,-5.79297 a 166.0683,166.06828 0 0 1 -0.04492,-0.13671 z m 309.234377,8.375 a 166.0683,166.06828 0 0 1 -0.0488,0.13281 l 14.20312,6.51758 a 181.87359,181.87357 0 0 0 1.63477,-3.65625 l -0.0586,-0.0254 a 181.87359,181.87357 0 0 1 -1.57618,3.52735 z m -305.345705,1.38867 -14.347656,6.74609 a 181.87359,181.87357 0 0 1 -1.507813,-3.56055 l -0.05469,0.0254 a 181.87359,181.87357 0 0 0 1.5625,3.68946 l 14.404297,-6.77344 a 166.0683,166.06828 0 0 1 -0.05664,-0.12695 z m 300.781255,8.1289 a 166.0683,166.06828 0 0 1 -0.0586,0.12305 l 14.06641,7.5293 a 181.87359,181.87357 0 0 0 1.64258,-3.66797 l -0.0566,-0.0293 a 181.87359,181.87357 0 0 1 -1.58593,3.54297 z m -296.445318,1.51172 -13.669921,7.48047 a 181.87359,181.87357 0 0 1 -1.6875,-3.49219 l -0.06055,0.0312 a 181.87359,181.87357 0 0 0 1.748047,3.61524 L 35.5332,259.19917 a 166.0683,166.06828 0 0 1 -0.05664,-0.12305 z m 291.455078,7.8418 a 166.0683,166.06828 0 0 1 -0.0684,0.11133 l 13.41406,8.2539 a 181.87359,181.87357 0 0 0 2,-3.48828 l -0.0664,-0.0391 a 181.87359,181.87357 0 0 1 -1.9336,3.37305 z m -286.187499,1.36328 -13.300782,8.34961 a 181.87359,181.87357 0 0 1 -2.035156,-3.31445 l -0.06836,0.041 a 181.87359,181.87357 0 0 0 2.103515,3.42774 l 13.365235,-8.39063 a 166.0683,166.06828 0 0 1 -0.06445,-0.11328 z m 280.624999,7.71289 a 166.0683,166.06828 0 0 1 -0.0664,0.10742 l 12.88282,9.01563 a 181.87359,181.87357 0 0 0 2.33593,-3.28711 l -0.0742,-0.0488 a 181.87359,181.87357 0 0 1 -2.26172,3.18164 z m -274.921874,1.27539 -12.921875,9.2168 a 181.87359,181.87357 0 0 1 -2.072266,-3.31836 l -0.06836,0.0469 a 181.87359,181.87357 0 0 0 2.140625,3.42578 l 12.99414,-9.26953 a 166.0683,166.06828 0 0 1 -0.07227,-0.10156 z m 268.597654,7.32227 a 166.0683,166.06828 0 0 1 -0.0723,0.0957 l 12.4707,9.85742 a 181.87359,181.87357 0 0 0 2.34961,-3.28515 l -0.0723,-0.0547 a 181.87359,181.87357 0 0 1 -2.27734,3.18554 z m -262.384764,1.36523 -12.121094,9.75391 a 181.87359,181.87357 0 0 1 -2.36914,-3.11328 l -0.07422,0.0566 a 181.87359,181.87357 0 0 0 2.443359,3.21093 l 12.191407,-9.81054 a 166.0683,166.06828 0 0 1 -0.07031,-0.0977 z m 255.667964,6.95703 A 166.0683,166.06828 0 0 1 308.25,293 l 11.74023,10.43359 a 181.87359,181.87357 0 0 0 2.66602,-3.03515 l -0.0781,-0.0664 a 181.87359,181.87357 0 0 1 -2.58789,2.94727 z m -248.695308,1.15821 -11.654296,10.53906 a 181.87359,181.87357 0 0 1 -2.675782,-2.8711 l -0.08008,0.0684 a 181.87359,181.87357 0 0 0 2.75586,2.95703 l 11.73047,-10.60746 a 166.0683,166.06828 0 0 1 -0.07617,-0.0859 z m 241.396488,6.67968 a 166.0683,166.06828 0 0 1 -0.0742,0.0801 l 11.19726,11.16602 a 181.87359,181.87357 0 0 0 2.8418,-2.875 l -0.0781,-0.0742 a 181.87359,181.87357 0 0 1 -2.76368,2.79492 z m -234.06055,1.11719 -11.076172,11.23828 a 181.87359,181.87357 0 0 1 -2.68164,-2.8789 l -0.07617,0.0742 a 181.87359,181.87357 0 0 0 2.757812,2.95899 l 11.15625,-11.31836 a 166.0683,166.06828 0 0 1 -0.08008,-0.0742 z m 226.20313,6.1582 a 166.0683,166.06828 0 0 1 -0.0781,0.0684 l 10.56445,11.81641 a 181.87359,181.87357 0 0 0 2.95508,-2.75391 l -0.0762,-0.082 a 181.87359,181.87357 0 0 1 -2.87891,2.68164 z m -218.365239,1.14063 -10.271485,11.69141 a 181.87359,181.87357 0 0 1 -2.957031,-2.59766 L 61.5,318.34766 a 181.87359,181.87357 0 0 0 3.035156,2.66601 l 10.345703,-11.77539 a 166.0683,166.06828 0 0 1 -0.07422,-0.0703 z M 285,314.93164 a 166.0683,166.06828 0 0 1 -0.0762,0.0586 l 9.75976,12.27149 a 181.87359,181.87357 0 0 0 3.21485,-2.44531 l -0.0781,-0.0937 a 181.87359,181.87357 0 0 1 -3.13672,2.38476 z m -201.816406,0.88672 -9.6875,12.40234 a 181.87359,181.87357 0 0 1 -3.197266,-2.31054 l -0.07813,0.0976 a 181.87359,181.87357 0 0 0 3.275391,2.36719 l 9.763672,-12.5 a 166.0683,166.06828 0 0 1 -0.07617,-0.0566 z m 193.130856,5.33008 a 166.0683,166.06828 0 0 1 -0.0723,0.0508 l 9.16406,13.00976 a 181.87359,181.87357 0 0 0 3.25977,-2.375 l -0.0742,-0.0996 a 181.87359,181.87357 0 0 1 -3.18555,2.32031 z m -184.482419,0.91797 -8.912109,12.89257 a 181.87359,181.87357 0 0 1 -3.203125,-2.29101 l -0.07422,0.10156 a 181.87359,181.87357 0 0 0 3.277344,2.34375 l 8.986328,-12.99805 a 166.0683,166.06828 0 0 1 -0.07422,-0.0488 z m 175.447269,4.71093 a 166.0683,166.06828 0 0 1 -0.0703,0.041 l 8.33008,13.43945 a 181.87359,181.87357 0 0 0 3.42969,-2.10156 l -0.0723,-0.11133 a 181.87359,181.87357 0 0 1 -3.35742,2.0586 z m -166.375,0.85547 -8.089847,13.31836 a 181.87359,181.87357 0 0 1 -3.416015,-1.96094 l -0.07227,0.11329 a 181.87359,181.87357 0 0 0 3.488281,2.00195 l 8.158211,-13.43164 a 166.0683,166.06828 0 0 1 -0.0684,-0.041 z m 157.13476,4.34961 a 166.0683,166.06828 0 0 1 -0.0645,0.0352 l 7.43359,13.77539 a 181.87359,181.87357 0 0 0 3.6211,-1.75 l -0.0684,-0.12109 a 181.87359,181.87357 0 0 1 -3.55274,1.71679 z m -147.74414,0.5625 -7.36328,13.95508 a 181.87359,181.87357 0 0 1 -3.521484,-1.77148 l -0.06641,0.12109 a 181.87359,181.87357 0 0 0 3.587894,1.80469 l 7.42774,-14.07813 a 166.0683,166.06828 0 0 1 -0.0645,-0.0312 z m 138.09961,3.75781 a 166.0683,166.06828 0 0 1 -0.0586,0.0274 l 6.69922,14.47461 a 181.87359,181.87357 0 0 0 3.60742,-1.74414 l -0.0606,-0.125 a 181.87359,181.87357 0 0 1 -3.54687,1.71484 z m -128.54687,0.72266 -6.40039,14.18164 a 181.87359,181.87357 0 0 1 -3.59375,-1.60742 l -0.0606,0.12695 a 181.87359,181.87357 0 0 0 3.6543,1.63477 l 6.45898,-14.31055 a 166.0683,166.06828 0 0 1 -0.0586,-0.0254 z m 118.75195,3.08594 a 166.0683,166.06828 0 0 1 -0.0527,0.0176 l 5.71093,14.70312 a 181.87359,181.87357 0 0 0 3.75781,-1.37305 l -0.0547,-0.13476 a 181.87359,181.87357 0 0 1 -3.70313,1.35351 z M 129.7207,340.63281 124.20312,355.25 a 181.87359,181.87357 0 0 1 -3.74218,-1.24414 l -0.0547,0.13672 a 181.87359,181.87357 0 0 0 3.79687,1.26172 l 5.56836,-14.75196 a 166.0683,166.06828 0 0 1 -0.0508,-0.0195 z m 98.94727,2.7793 a 166.0683,166.06828 0 0 1 -0.0449,0.0137 l 4.73047,14.96875 a 181.87359,181.87357 0 0 0 3.875,-0.99609 l -0.0488,-0.14258 a 181.87359,181.87357 0 0 1 -3.82617,0.98437 z m -88.94727,0.28125 -4.62109,15.14258 a 181.87359,181.87357 0 0 1 -3.75195,-1.21094 l -0.0469,0.13867 a 181.87359,181.87357 0 0 0 3.79883,1.22656 l 4.66406,-15.28515 a 166.0683,166.06828 0 0 1 -0.043,-0.0117 z m 78.78711,2.08789 a 166.0683,166.06828 0 0 1 -0.0352,0.008 l 3.77539,15.44141 a 181.87359,181.87357 0 0 0 3.86328,-0.98633 l -0.0391,-0.14453 a 181.87359,181.87357 0 0 1 -3.82422,0.97656 z m -68.6914,0.49023 -3.52539,15.07618 a 181.87359,181.87357 0 0 1 -3.85352,-0.86524 l -0.0371,0.14649 a 181.87359,181.87357 0 0 0 3.89063,0.87304 l 3.55859,-15.22265 a 166.0683,166.06828 0 0 1 -0.0332,-0.008 z m 58.48242,1.45704 a 166.0683,166.06828 0 0 1 -0.0254,0.004 l 2.68164,15.48438 a 181.87359,181.87357 0 0 0 3.94922,-0.59571 l -0.0293,-0.15039 a 181.87359,181.87357 0 0 1 -3.91992,0.5918 z m -48.21289,0.16015 -2.50977,15.46875 a 181.87359,181.87357 0 0 1 -3.9414,-0.47851 l -0.0293,0.15234 a 181.87359,181.87357 0 0 0 3.9707,0.48242 l 2.53516,-15.62109 a 166.0683,166.06828 0 0 1 -0.0254,-0.004 z m 37.90234,1.09375 a 166.0683,166.06828 0 0 1 -0.0156,0.002 l 1.60351,15.75195 a 181.87359,181.87357 0 0 0 3.98242,-0.39844 l -0.0195,-0.1543 a 181.87359,181.87357 0 0 1 -3.96289,0.39649 z m -27.58594,0.10547 -1.42382,15.6543 a 181.87359,181.87357 0 0 1 -3.95508,-0.48047 l -0.0176,0.15234 a 181.87359,181.87357 0 0 0 3.97266,0.48242 l 1.4375,-15.80859 a 166.0683,166.06828 0 0 1 -0.0137,0 z m 17.19532,0.50391 0.46093,15.7207 a 181.87359,181.87357 0 0 0 4.01563,-0.20117 l -0.008,-0.1543 a 181.87359,181.87357 0 0 1 -4.00782,0.20117 l -0.45703,-15.5664 a 166.0683,166.06828 0 0 1 -0.004,0 z m -6.80078,0.0156 -0.28711,15.67774 a 181.87359,181.87357 0 0 1 -4.01563,-0.14258 l -0.006,0.1543 a 181.87359,181.87357 0 0 0 4.02149,0.14257 l 0.28906,-15.83203 a 166.0683,166.06828 0 0 1 -0.002,0 z"
         style="opacity:1;vector-effect:none;fill:#ffff00;fill-opacity:1;fill-rule:evenodd;stroke:none;stroke-width:1.7828418;stroke-linecap:butt;stroke-linejoin:miter;stroke-miterlimit:4;stroke-dasharray:none;stroke-dashoffset:0;stroke-opacity:1;paint-order:fill markers stroke" />
    </g>
  </g>
</svg>
